<svg width="47" height="47" viewBox="0 0 47 47" fill="none" xmlns="http://www.w3.org/2000/svg">
<circle cx="23.5" cy="23.5" r="23.5" fill="#F4F4F4"/>
<path fill-rule="evenodd" clip-rule="evenodd" d="M12.6557 25.9809C12.2358 25.5708 12 25.015 12 24.4354C12 23.8558 12.2358 23.2999 12.6557 22.8899L21.11 14.6403C21.5306 14.2302 22.101 13.9999 22.6957 14C23.2904 14.0001 23.8607 14.2307 24.2811 14.641C24.7015 15.0513 24.9376 15.6077 24.9375 16.1878C24.9374 16.7679 24.701 17.3241 24.2804 17.7342L17.4105 24.4354L24.2804 31.1366C24.689 31.5489 24.9153 32.1012 24.9104 32.6747C24.9056 33.2481 24.6701 33.7968 24.2545 34.2024C23.839 34.6081 23.2768 34.8384 22.6889 34.8437C22.101 34.8489 21.5346 34.6287 21.1115 34.2305L12.6542 25.9824L12.6557 25.9809Z" fill="#F9BDBB"/>
<path fill-rule="evenodd" clip-rule="evenodd" d="M22.7182 25.9809C22.2983 25.5708 22.0625 25.015 22.0625 24.4354C22.0625 23.8558 22.2983 23.2999 22.7182 22.8899L31.1725 14.6403C31.5931 14.2302 32.1635 13.9999 32.7582 14C33.3529 14.0001 33.9232 14.2307 34.3436 14.641C34.764 15.0513 35.0001 15.6077 35 16.1878C34.9999 16.7679 34.7635 17.3241 34.3429 17.7342L27.473 24.4354L34.3429 31.1366C34.7515 31.5489 34.9778 32.1012 34.9729 32.6747C34.9681 33.2481 34.7326 33.7968 34.317 34.2024C33.9015 34.6081 33.3393 34.8384 32.7514 34.8437C32.1635 34.8489 31.5971 34.6287 31.174 34.2305L22.7167 25.9824L22.7182 25.9809Z" fill="#F9BDBB"/>
</svg>
