<svg width="912" height="248" viewBox="0 0 912 248" fill="none" xmlns="http://www.w3.org/2000/svg">
<rect width="912" height="248" rx="15" fill="#EFEFEF" fill-opacity="0.45"/>
<path d="M344.48 46.92V38.1H346.76V46.96C346.76 49.12 347.98 50.14 349.9 50.14C351.84 50.14 353.06 49.12 353.06 46.96V38.1H355.34V46.92C355.34 50.46 352.78 52.14 349.88 52.14C346.96 52.14 344.48 50.46 344.48 46.92ZM358.309 52V38.1H360.589V52H358.309ZM368.497 55.5L373.917 33.12H376.177L370.737 55.5H368.497ZM384.226 46.92V38.1H386.506V46.96C386.506 49.12 387.726 50.14 389.646 50.14C391.586 50.14 392.806 49.12 392.806 46.96V38.1H395.086V46.92C395.086 50.46 392.526 52.14 389.626 52.14C386.706 52.14 384.226 50.46 384.226 46.92ZM406.195 52L403.055 46.96L400.115 52H397.575L401.895 45.06L397.555 38.1H400.115L403.275 43.18L406.235 38.1H408.775L404.435 45.06L408.755 52H406.195ZM420.993 38.1C425.453 38.1 428.373 40.8 428.373 45.1C428.373 49.38 425.453 52 420.993 52H416.453V38.1H420.993ZM418.733 50.14H420.993C424.273 50.14 426.033 48.26 426.033 45.1C426.033 41.92 424.273 39.96 420.993 39.96H418.733V50.14ZM435.273 42.72C433.733 42.72 432.493 43.76 432.253 45.5H438.353C438.313 43.8 436.973 42.72 435.273 42.72ZM440.433 48.72C439.813 50.64 438.073 52.18 435.373 52.18C432.213 52.18 429.873 49.94 429.873 46.48C429.873 43.02 432.113 40.8 435.373 40.8C438.513 40.8 440.733 42.98 440.733 46.22C440.733 46.6 440.713 46.96 440.653 47.34H432.233C432.393 49.16 433.693 50.26 435.373 50.26C436.773 50.26 437.553 49.58 437.973 48.72H440.433ZM451.197 48.92C451.197 50.78 449.577 52.18 446.977 52.18C444.337 52.18 442.477 50.62 442.377 48.62H444.737C444.817 49.52 445.677 50.26 446.937 50.26C448.257 50.26 448.957 49.7 448.957 48.94C448.957 46.78 442.557 48.02 442.557 43.98C442.557 42.22 444.197 40.8 446.797 40.8C449.297 40.8 450.937 42.14 451.057 44.34H448.777C448.697 43.38 447.957 42.72 446.717 42.72C445.497 42.72 444.857 43.22 444.857 43.96C444.857 46.18 451.077 44.94 451.197 48.92ZM453.66 52V40.98H455.94V52H453.66ZM454.82 39.52C454 39.52 453.36 38.88 453.36 38.06C453.36 37.24 454 36.6 454.82 36.6C455.62 36.6 456.26 37.24 456.26 38.06C456.26 38.88 455.62 39.52 454.82 39.52ZM458.174 46.44C458.174 43.04 460.474 40.8 463.374 40.8C465.174 40.8 466.514 41.64 467.194 42.58V40.98H469.494V52.18C469.494 55.18 467.554 57.44 464.114 57.44C461.174 57.44 458.994 55.98 458.714 53.54H460.974C461.314 54.68 462.534 55.46 464.114 55.46C465.874 55.46 467.194 54.38 467.194 52.18V50.34C466.494 51.28 465.174 52.18 463.374 52.18C460.474 52.18 458.174 49.84 458.174 46.44ZM467.194 46.48C467.194 44.12 465.574 42.78 463.854 42.78C462.154 42.78 460.514 44.06 460.514 46.44C460.514 48.82 462.154 50.2 463.854 50.2C465.574 50.2 467.194 48.86 467.194 46.48ZM480.308 52V45.84C480.308 43.82 479.208 42.78 477.548 42.78C475.868 42.78 474.768 43.82 474.768 45.84V52H472.488V40.98H474.768V42.24C475.508 41.34 476.728 40.8 478.048 40.8C480.628 40.8 482.568 42.42 482.568 45.5V52H480.308ZM492.952 44.5H495.472C497.252 44.5 498.052 43.64 498.052 42.24C498.052 40.8 497.252 39.96 495.472 39.96H492.952V44.5ZM500.392 42.24C500.392 44.22 499.092 46.36 495.472 46.36H492.952V52H490.672V38.1H495.472C498.772 38.1 500.392 39.98 500.392 42.24ZM504.846 46.2V52H502.566V40.98H504.846V42.58C505.486 41.48 506.586 40.8 508.146 40.8V43.16H507.566C505.886 43.16 504.846 43.86 504.846 46.2ZM520.742 46.48C520.742 49.94 518.182 52.18 515.022 52.18C511.882 52.18 509.502 49.94 509.502 46.48C509.502 43.02 511.982 40.8 515.122 40.8C518.262 40.8 520.742 43.02 520.742 46.48ZM511.822 46.48C511.822 48.98 513.302 50.2 515.022 50.2C516.722 50.2 518.402 48.98 518.402 46.48C518.402 43.98 516.782 42.78 515.082 42.78C513.362 42.78 511.822 43.98 511.822 46.48ZM522.236 46.48C522.236 43.04 524.476 40.8 527.636 40.8C530.336 40.8 532.096 42.14 532.716 44.46H530.256C529.876 43.4 528.996 42.72 527.636 42.72C525.796 42.72 524.576 44.08 524.576 46.48C524.576 48.9 525.796 50.26 527.636 50.26C528.996 50.26 529.836 49.66 530.256 48.52H532.716C532.096 50.68 530.336 52.18 527.636 52.18C524.476 52.18 522.236 49.94 522.236 46.48ZM539.628 42.72C538.088 42.72 536.848 43.76 536.608 45.5H542.708C542.668 43.8 541.328 42.72 539.628 42.72ZM544.788 48.72C544.168 50.64 542.428 52.18 539.728 52.18C536.568 52.18 534.228 49.94 534.228 46.48C534.228 43.02 536.468 40.8 539.728 40.8C542.868 40.8 545.088 42.98 545.088 46.22C545.088 46.6 545.068 46.96 545.008 47.34H536.588C536.748 49.16 538.048 50.26 539.728 50.26C541.128 50.26 541.908 49.58 542.328 48.72H544.788ZM555.552 48.92C555.552 50.78 553.932 52.18 551.332 52.18C548.692 52.18 546.832 50.62 546.732 48.62H549.092C549.172 49.52 550.032 50.26 551.292 50.26C552.612 50.26 553.312 49.7 553.312 48.94C553.312 46.78 546.912 48.02 546.912 43.98C546.912 42.22 548.552 40.8 551.152 40.8C553.652 40.8 555.292 42.14 555.412 44.34H553.132C553.052 43.38 552.312 42.72 551.072 42.72C549.852 42.72 549.212 43.22 549.212 43.96C549.212 46.18 555.432 44.94 555.552 48.92ZM566.236 48.92C566.236 50.78 564.616 52.18 562.016 52.18C559.376 52.18 557.516 50.62 557.416 48.62H559.776C559.856 49.52 560.716 50.26 561.976 50.26C563.296 50.26 563.996 49.7 563.996 48.94C563.996 46.78 557.596 48.02 557.596 43.98C557.596 42.22 559.236 40.8 561.836 40.8C564.336 40.8 565.976 42.14 566.096 44.34H563.816C563.736 43.38 562.996 42.72 561.756 42.72C560.536 42.72 559.896 43.22 559.896 43.96C559.896 46.18 566.116 44.94 566.236 48.92Z" fill="#313131"/>
<path d="M224.75 174.43V170.03H225.66V174.44C225.66 175.72 226.35 176.27 227.38 176.27C228.41 176.27 229.09 175.72 229.09 174.44V170.03H230V174.43C230 176.24 228.81 177.07 227.37 177.07C225.93 177.07 224.75 176.24 224.75 174.43ZM235.528 177V173.9C235.528 172.78 234.918 172.21 233.998 172.21C233.068 172.21 232.428 172.79 232.428 173.97V177H231.518V171.52H232.428V172.3C232.788 171.73 233.448 171.42 234.188 171.42C235.458 171.42 236.428 172.2 236.428 173.77V177H235.528ZM237.575 174.24C237.575 172.53 238.705 171.43 240.185 171.43C241.045 171.43 241.835 171.87 242.215 172.5V169.6H243.135V177H242.215V175.97C241.885 176.58 241.175 177.09 240.175 177.09C238.705 177.09 237.575 175.94 237.575 174.24ZM242.215 174.25C242.215 172.98 241.355 172.22 240.355 172.22C239.355 172.22 238.505 172.95 238.505 174.24C238.505 175.53 239.355 176.29 240.355 176.29C241.355 176.29 242.215 175.54 242.215 174.25ZM247.002 172.2C246.112 172.2 245.372 172.79 245.272 173.86H248.732C248.742 172.79 247.942 172.2 247.002 172.2ZM249.562 175.31C249.282 176.31 248.402 177.09 247.042 177.09C245.482 177.09 244.332 175.99 244.332 174.25C244.332 172.52 245.442 171.43 247.042 171.43C248.632 171.43 249.672 172.55 249.672 174.05C249.672 174.25 249.662 174.41 249.642 174.6H245.262C245.332 175.71 246.112 176.32 247.042 176.32C247.862 176.32 248.382 175.9 248.582 175.31H249.562ZM251.784 174.02V177H250.874V171.52H251.784V172.41C252.094 171.8 252.684 171.42 253.554 171.42V172.36H253.314C252.444 172.36 251.784 172.75 251.784 174.02ZM258.544 175.51C258.544 176.41 257.754 177.09 256.544 177.09C255.264 177.09 254.364 176.39 254.304 175.39H255.244C255.294 175.92 255.764 176.32 256.534 176.32C257.254 176.32 257.654 175.96 257.654 175.51C257.654 174.29 254.414 175 254.414 172.96C254.414 172.12 255.204 171.43 256.424 171.43C257.634 171.43 258.434 172.08 258.494 173.15H257.584C257.544 172.6 257.124 172.2 256.394 172.2C255.724 172.2 255.324 172.52 255.324 172.96C255.324 174.26 258.504 173.55 258.544 175.51ZM260.029 175.5V172.27H259.319V171.52H260.029V170.14H260.939V171.52H262.369V172.27H260.939V175.5C260.939 176.04 261.139 176.23 261.699 176.23H262.369V177H261.549C260.579 177 260.029 176.6 260.029 175.5ZM263.131 174.24C263.131 172.53 264.261 171.43 265.731 171.43C266.751 171.43 267.451 171.95 267.771 172.52V171.52H268.691V177H267.771V175.98C267.441 176.57 266.731 177.09 265.721 177.09C264.261 177.09 263.131 175.94 263.131 174.24ZM267.771 174.25C267.771 172.98 266.911 172.22 265.911 172.22C264.911 172.22 264.061 172.95 264.061 174.24C264.061 175.53 264.911 176.29 265.911 176.29C266.911 176.29 267.771 175.54 267.771 174.25ZM274.239 177V173.9C274.239 172.78 273.629 172.21 272.709 172.21C271.779 172.21 271.139 172.79 271.139 173.97V177H270.229V171.52H271.139V172.3C271.499 171.73 272.159 171.42 272.899 171.42C274.169 171.42 275.139 172.2 275.139 173.77V177H274.239ZM276.285 174.24C276.285 172.53 277.415 171.43 278.895 171.43C279.755 171.43 280.545 171.87 280.925 172.5V169.6H281.845V177H280.925V175.97C280.595 176.58 279.885 177.09 278.885 177.09C277.415 177.09 276.285 175.94 276.285 174.24ZM280.925 174.25C280.925 172.98 280.065 172.22 279.065 172.22C278.065 172.22 277.215 172.95 277.215 174.24C277.215 175.53 278.065 176.29 279.065 176.29C280.065 176.29 280.925 175.54 280.925 174.25ZM286.249 175.5V172.27H285.539V171.52H286.249V170.14H287.159V171.52H288.589V172.27H287.159V175.5C287.159 176.04 287.359 176.23 287.919 176.23H288.589V177H287.769C286.799 177 286.249 176.6 286.249 175.5ZM289.692 177V169.6H290.602V172.31C290.962 171.73 291.642 171.42 292.412 171.42C293.632 171.42 294.602 172.2 294.602 173.77V177H293.702V173.9C293.702 172.78 293.092 172.21 292.172 172.21C291.242 172.21 290.602 172.79 290.602 173.97V177H289.692ZM298.418 172.2C297.528 172.2 296.788 172.79 296.688 173.86H300.148C300.158 172.79 299.358 172.2 298.418 172.2ZM300.978 175.31C300.698 176.31 299.818 177.09 298.458 177.09C296.898 177.09 295.748 175.99 295.748 174.25C295.748 172.52 296.858 171.43 298.458 171.43C300.048 171.43 301.088 172.55 301.088 174.05C301.088 174.25 301.078 174.41 301.058 174.6H296.678C296.748 175.71 297.528 176.32 298.458 176.32C299.278 176.32 299.798 175.9 299.998 175.31H300.978ZM305.866 173.34H307.206C308.246 173.34 308.686 172.85 308.686 172.07C308.686 171.26 308.246 170.78 307.206 170.78H305.866V173.34ZM309.616 172.07C309.616 173.13 308.936 174.09 307.206 174.09H305.866V177H304.956V170.03H307.206C308.846 170.03 309.616 170.93 309.616 172.07ZM311.657 174.02V177H310.747V171.52H311.657V172.41C311.967 171.8 312.557 171.42 313.427 171.42V172.36H313.187C312.317 172.36 311.657 172.75 311.657 174.02ZM319.677 174.25C319.677 175.99 318.427 177.09 316.867 177.09C315.317 177.09 314.137 175.99 314.137 174.25C314.137 172.52 315.357 171.43 316.907 171.43C318.467 171.43 319.677 172.52 319.677 174.25ZM315.067 174.25C315.067 175.64 315.917 176.29 316.867 176.29C317.817 176.29 318.747 175.64 318.747 174.25C318.747 172.87 317.837 172.22 316.897 172.22C315.937 172.22 315.067 172.87 315.067 174.25ZM321.784 172.54C322.134 171.93 322.864 171.43 323.834 171.43C325.314 171.43 326.434 172.53 326.434 174.24C326.434 175.94 325.304 177.09 323.834 177.09C322.834 177.09 322.124 176.59 321.784 175.99V177H320.874V169.6H321.784V172.54ZM325.504 174.24C325.504 172.95 324.654 172.22 323.644 172.22C322.654 172.22 321.784 172.98 321.784 174.25C321.784 175.54 322.654 176.29 323.644 176.29C324.654 176.29 325.504 175.53 325.504 174.24ZM327.631 177V169.6H328.541V177H327.631ZM332.422 172.2C331.532 172.2 330.792 172.79 330.692 173.86H334.152C334.162 172.79 333.362 172.2 332.422 172.2ZM334.982 175.31C334.702 176.31 333.822 177.09 332.462 177.09C330.902 177.09 329.752 175.99 329.752 174.25C329.752 172.52 330.862 171.43 332.462 171.43C334.052 171.43 335.092 172.55 335.092 174.05C335.092 174.25 335.082 174.41 335.062 174.6H330.682C330.752 175.71 331.532 176.32 332.462 176.32C333.282 176.32 333.802 175.9 334.002 175.31H334.982ZM344.203 177V173.9C344.203 172.78 343.603 172.21 342.703 172.21C341.783 172.21 341.153 172.8 341.153 173.98V177H340.253V173.9C340.253 172.78 339.653 172.21 338.753 172.21C337.833 172.21 337.203 172.8 337.203 173.98V177H336.293V171.52H337.203V172.31C337.563 171.73 338.213 171.42 338.933 171.42C339.833 171.42 340.583 171.82 340.943 172.64C341.263 171.85 342.043 171.42 342.883 171.42C344.133 171.42 345.103 172.2 345.103 173.77V177H344.203Z" fill="#313131"/>
<path d="M228.55 199L225.68 195.82V199H224.77V192.03H225.68V195.26L228.56 192.03H229.71L226.55 195.52L229.74 199H228.55ZM234.766 199V195.9C234.766 194.78 234.156 194.21 233.236 194.21C232.306 194.21 231.666 194.79 231.666 195.97V199H230.756V193.52H231.666V194.3C232.026 193.73 232.686 193.42 233.426 193.42C234.696 193.42 235.666 194.2 235.666 195.77V199H234.766ZM242.353 196.25C242.353 197.99 241.103 199.09 239.543 199.09C237.993 199.09 236.813 197.99 236.813 196.25C236.813 194.52 238.033 193.43 239.583 193.43C241.143 193.43 242.353 194.52 242.353 196.25ZM237.743 196.25C237.743 197.64 238.593 198.29 239.543 198.29C240.493 198.29 241.423 197.64 241.423 196.25C241.423 194.87 240.513 194.22 239.573 194.22C238.613 194.22 237.743 194.87 237.743 196.25ZM244.619 199L242.899 193.52H243.829L245.089 198.12L246.449 193.52H247.379L248.709 198.13L249.949 193.52H250.849L249.139 199H248.199L246.879 194.65L245.559 199H244.619ZM261.078 195.51C261.078 197.6 259.548 199.07 257.578 199.07C255.618 199.07 254.078 197.6 254.078 195.51C254.078 193.42 255.618 191.95 257.578 191.95C259.548 191.95 261.078 193.42 261.078 195.51ZM255.008 195.51C255.008 197.21 256.108 198.28 257.578 198.28C259.048 198.28 260.148 197.21 260.148 195.51C260.148 193.8 259.048 192.74 257.578 192.74C256.108 192.74 255.008 193.8 255.008 195.51ZM263.19 196.02V199H262.28V193.52H263.19V194.41C263.5 193.8 264.09 193.42 264.96 193.42V194.36H264.72C263.85 194.36 263.19 194.75 263.19 196.02ZM265.67 196.24C265.67 194.53 266.8 193.43 268.27 193.43C269.27 193.43 269.99 193.93 270.31 194.52V193.52H271.23V199.12C271.23 200.63 270.22 201.7 268.61 201.7C267.17 201.7 266.14 200.97 265.96 199.8H266.86C267.06 200.46 267.71 200.91 268.61 200.91C269.58 200.91 270.31 200.29 270.31 199.12V197.97C269.98 198.56 269.27 199.09 268.27 199.09C266.8 199.09 265.67 197.94 265.67 196.24ZM270.31 196.25C270.31 194.98 269.45 194.22 268.45 194.22C267.45 194.22 266.6 194.95 266.6 196.24C266.6 197.53 267.45 198.29 268.45 198.29C269.45 198.29 270.31 197.54 270.31 196.25ZM272.428 196.24C272.428 194.53 273.558 193.43 275.028 193.43C276.048 193.43 276.748 193.95 277.068 194.52V193.52H277.988V199H277.068V197.98C276.738 198.57 276.028 199.09 275.018 199.09C273.558 199.09 272.428 197.94 272.428 196.24ZM277.068 196.25C277.068 194.98 276.208 194.22 275.208 194.22C274.208 194.22 273.358 194.95 273.358 196.24C273.358 197.53 274.208 198.29 275.208 198.29C276.208 198.29 277.068 197.54 277.068 196.25ZM283.536 199V195.9C283.536 194.78 282.926 194.21 282.006 194.21C281.076 194.21 280.436 194.79 280.436 195.97V199H279.526V193.52H280.436V194.3C280.796 193.73 281.456 193.42 282.196 193.42C283.466 193.42 284.436 194.2 284.436 195.77V199H283.536ZM285.922 199V193.52H286.832V199H285.922ZM286.392 192.63C286.042 192.63 285.772 192.36 285.772 192.01C285.772 191.66 286.042 191.39 286.392 191.39C286.722 191.39 286.992 191.66 286.992 192.01C286.992 192.36 286.722 192.63 286.392 192.63ZM291.733 193.52V194.26L289.063 198.25H291.753V199H288.023V198.25L290.683 194.26H288.043V193.52H291.733ZM292.594 196.24C292.594 194.53 293.724 193.43 295.194 193.43C296.214 193.43 296.914 193.95 297.234 194.52V193.52H298.154V199H297.234V197.98C296.904 198.57 296.194 199.09 295.184 199.09C293.724 199.09 292.594 197.94 292.594 196.24ZM297.234 196.25C297.234 194.98 296.374 194.22 295.374 194.22C294.374 194.22 293.524 194.95 293.524 196.24C293.524 197.53 294.374 198.29 295.374 198.29C296.374 198.29 297.234 197.54 297.234 196.25ZM299.892 197.5V194.27H299.182V193.52H299.892V192.14H300.802V193.52H302.232V194.27H300.802V197.5C300.802 198.04 301.002 198.23 301.562 198.23H302.232V199H301.412C300.442 199 299.892 198.6 299.892 197.5ZM303.334 199V193.52H304.244V199H303.334ZM303.804 192.63C303.454 192.63 303.184 192.36 303.184 192.01C303.184 191.66 303.454 191.39 303.804 191.39C304.134 191.39 304.404 191.66 304.404 192.01C304.404 192.36 304.134 192.63 303.804 192.63ZM310.995 196.25C310.995 197.99 309.745 199.09 308.185 199.09C306.635 199.09 305.455 197.99 305.455 196.25C305.455 194.52 306.675 193.43 308.225 193.43C309.785 193.43 310.995 194.52 310.995 196.25ZM306.385 196.25C306.385 197.64 307.235 198.29 308.185 198.29C309.135 198.29 310.065 197.64 310.065 196.25C310.065 194.87 309.155 194.22 308.215 194.22C307.255 194.22 306.385 194.87 306.385 196.25ZM316.202 199V195.9C316.202 194.78 315.592 194.21 314.672 194.21C313.742 194.21 313.102 194.79 313.102 195.97V199H312.192V193.52H313.102V194.3C313.462 193.73 314.122 193.42 314.862 193.42C316.132 193.42 317.102 194.2 317.102 195.77V199H316.202ZM231.43 210.51C231.43 212.6 229.9 214.07 227.93 214.07C225.97 214.07 224.43 212.6 224.43 210.51C224.43 208.42 225.97 206.95 227.93 206.95C229.9 206.95 231.43 208.42 231.43 210.51ZM225.36 210.51C225.36 212.21 226.46 213.28 227.93 213.28C229.4 213.28 230.5 212.21 230.5 210.51C230.5 208.8 229.4 207.74 227.93 207.74C226.46 207.74 225.36 208.8 225.36 210.51ZM233.541 209.54C233.891 208.93 234.621 208.43 235.591 208.43C237.071 208.43 238.191 209.53 238.191 211.24C238.191 212.94 237.061 214.09 235.591 214.09C234.591 214.09 233.881 213.59 233.541 212.99V214H232.631V206.6H233.541V209.54ZM237.261 211.24C237.261 209.95 236.411 209.22 235.401 209.22C234.411 209.22 233.541 209.98 233.541 211.25C233.541 212.54 234.411 213.29 235.401 213.29C236.411 213.29 237.261 212.53 237.261 211.24ZM239.879 207.63C239.539 207.63 239.269 207.36 239.269 207.01C239.269 206.66 239.539 206.39 239.879 206.39C240.219 206.39 240.489 206.66 240.489 207.01C240.489 207.36 240.219 207.63 239.879 207.63ZM239.419 208.52H240.329V215.19C240.329 216.18 239.809 216.6 238.879 216.6H238.349V215.83H238.729C239.229 215.83 239.419 215.65 239.419 215.17V208.52ZM244.2 209.2C243.31 209.2 242.57 209.79 242.47 210.86H245.93C245.94 209.79 245.14 209.2 244.2 209.2ZM246.76 212.31C246.48 213.31 245.6 214.09 244.24 214.09C242.68 214.09 241.53 212.99 241.53 211.25C241.53 209.52 242.64 208.43 244.24 208.43C245.83 208.43 246.87 209.55 246.87 211.05C246.87 211.25 246.86 211.41 246.84 211.6H242.46C242.53 212.71 243.31 213.32 244.24 213.32C245.06 213.32 245.58 212.9 245.78 212.31H246.76ZM247.731 211.25C247.731 209.53 248.841 208.43 250.401 208.43C251.761 208.43 252.651 209.13 252.931 210.28H251.951C251.761 209.62 251.211 209.2 250.401 209.2C249.401 209.2 248.661 209.91 248.661 211.25C248.661 212.61 249.401 213.32 250.401 213.32C251.211 213.32 251.751 212.93 251.951 212.24H252.931C252.651 213.33 251.761 214.09 250.401 214.09C248.841 214.09 247.731 212.99 247.731 211.25ZM254.345 212.5V209.27H253.635V208.52H254.345V207.14H255.255V208.52H256.685V209.27H255.255V212.5C255.255 213.04 255.455 213.23 256.015 213.23H256.685V214H255.865C254.895 214 254.345 213.6 254.345 212.5ZM257.788 214V208.52H258.698V214H257.788ZM258.258 207.63C257.908 207.63 257.638 207.36 257.638 207.01C257.638 206.66 257.908 206.39 258.258 206.39C258.588 206.39 258.858 206.66 258.858 207.01C258.858 207.36 258.588 207.63 258.258 207.63ZM259.599 208.52H260.579L262.289 213.16L263.989 208.52H264.959L262.809 214H261.749L259.599 208.52ZM268.184 209.2C267.294 209.2 266.554 209.79 266.454 210.86H269.914C269.924 209.79 269.124 209.2 268.184 209.2ZM270.744 212.31C270.464 213.31 269.584 214.09 268.224 214.09C266.664 214.09 265.514 212.99 265.514 211.25C265.514 209.52 266.624 208.43 268.224 208.43C269.814 208.43 270.854 209.55 270.854 211.05C270.854 211.25 270.844 211.41 270.824 211.6H266.444C266.514 212.71 267.294 213.32 268.224 213.32C269.044 213.32 269.564 212.9 269.764 212.31H270.744ZM275.995 212.51C275.995 213.41 275.205 214.09 273.995 214.09C272.715 214.09 271.815 213.39 271.755 212.39H272.695C272.745 212.92 273.215 213.32 273.985 213.32C274.705 213.32 275.105 212.96 275.105 212.51C275.105 211.29 271.865 212 271.865 209.96C271.865 209.12 272.655 208.43 273.875 208.43C275.085 208.43 275.885 209.08 275.945 210.15H275.035C274.995 209.6 274.575 209.2 273.845 209.2C273.175 209.2 272.775 209.52 272.775 209.96C272.775 211.26 275.955 210.55 275.995 212.51Z" fill="#313131"/>
<path d="M385.43 170.51C385.43 168.42 386.96 166.94 388.91 166.94C390.42 166.94 391.62 167.7 392.14 169.05H391.05C390.67 168.21 389.93 167.74 388.91 167.74C387.45 167.74 386.36 168.8 386.36 170.51C386.36 172.21 387.45 173.27 388.91 173.27C389.93 173.27 390.67 172.8 391.05 171.97H392.14C391.62 173.31 390.42 174.06 388.91 174.06C386.96 174.06 385.43 172.6 385.43 170.51ZM394.405 171.02V174H393.495V168.52H394.405V169.41C394.715 168.8 395.305 168.42 396.175 168.42V169.36H395.935C395.065 169.36 394.405 169.75 394.405 171.02ZM399.555 169.2C398.665 169.2 397.925 169.79 397.825 170.86H401.285C401.295 169.79 400.495 169.2 399.555 169.2ZM402.115 172.31C401.835 173.31 400.955 174.09 399.595 174.09C398.035 174.09 396.885 172.99 396.885 171.25C396.885 169.52 397.995 168.43 399.595 168.43C401.185 168.43 402.225 169.55 402.225 171.05C402.225 171.25 402.215 171.41 402.195 171.6H397.815C397.885 172.71 398.665 173.32 399.595 173.32C400.415 173.32 400.935 172.9 401.135 172.31H402.115ZM403.086 171.24C403.086 169.53 404.216 168.43 405.686 168.43C406.706 168.43 407.406 168.95 407.726 169.52V168.52H408.646V174H407.726V172.98C407.396 173.57 406.686 174.09 405.676 174.09C404.216 174.09 403.086 172.94 403.086 171.24ZM407.726 171.25C407.726 169.98 406.866 169.22 405.866 169.22C404.866 169.22 404.016 169.95 404.016 171.24C404.016 172.53 404.866 173.29 405.866 173.29C406.866 173.29 407.726 172.54 407.726 171.25ZM410.384 172.5V169.27H409.674V168.52H410.384V167.14H411.294V168.52H412.724V169.27H411.294V172.5C411.294 173.04 411.494 173.23 412.054 173.23H412.724V174H411.904C410.934 174 410.384 173.6 410.384 172.5ZM416.157 169.2C415.267 169.2 414.527 169.79 414.427 170.86H417.887C417.897 169.79 417.097 169.2 416.157 169.2ZM418.717 172.31C418.437 173.31 417.557 174.09 416.197 174.09C414.637 174.09 413.487 172.99 413.487 171.25C413.487 169.52 414.597 168.43 416.197 168.43C417.787 168.43 418.827 169.55 418.827 171.05C418.827 171.25 418.817 171.41 418.797 171.6H414.417C414.487 172.71 415.267 173.32 416.197 173.32C417.017 173.32 417.537 172.9 417.737 172.31H418.717ZM423.604 170.34H424.944C425.984 170.34 426.424 169.85 426.424 169.07C426.424 168.26 425.984 167.78 424.944 167.78H423.604V170.34ZM427.354 169.07C427.354 170.13 426.674 171.09 424.944 171.09H423.604V174H422.694V167.03H424.944C426.584 167.03 427.354 167.93 427.354 169.07ZM428.145 171.24C428.145 169.53 429.275 168.43 430.745 168.43C431.765 168.43 432.465 168.95 432.785 169.52V168.52H433.705V174H432.785V172.98C432.455 173.57 431.745 174.09 430.735 174.09C429.275 174.09 428.145 172.94 428.145 171.24ZM432.785 171.25C432.785 169.98 431.925 169.22 430.925 169.22C429.925 169.22 429.075 169.95 429.075 171.24C429.075 172.53 429.925 173.29 430.925 173.29C431.925 173.29 432.785 172.54 432.785 171.25ZM436.153 169.53C436.483 168.95 437.203 168.43 438.203 168.43C439.673 168.43 440.803 169.53 440.803 171.24C440.803 172.94 439.673 174.09 438.203 174.09C437.203 174.09 436.493 173.55 436.153 172.99V176.6H435.243V168.52H436.153V169.53ZM439.873 171.24C439.873 169.95 439.023 169.22 438.013 169.22C437.023 169.22 436.153 169.98 436.153 171.25C436.153 172.54 437.023 173.29 438.013 173.29C439.023 173.29 439.873 172.53 439.873 171.24ZM444.33 169.2C443.44 169.2 442.7 169.79 442.6 170.86H446.06C446.07 169.79 445.27 169.2 444.33 169.2ZM446.89 172.31C446.61 173.31 445.73 174.09 444.37 174.09C442.81 174.09 441.66 172.99 441.66 171.25C441.66 169.52 442.77 168.43 444.37 168.43C445.96 168.43 447 169.55 447 171.05C447 171.25 446.99 171.41 446.97 171.6H442.59C442.66 172.71 443.44 173.32 444.37 173.32C445.19 173.32 445.71 172.9 445.91 172.31H446.89ZM449.112 171.02V174H448.202V168.52H449.112V169.41C449.422 168.8 450.012 168.42 450.882 168.42V169.36H450.642C449.772 169.36 449.112 169.75 449.112 171.02ZM389.5 184.08C389.5 183.29 389.06 182.78 388.02 182.78H386.68V185.42H388.02C389.05 185.42 389.5 184.86 389.5 184.08ZM385.77 182.03H388.02C389.66 182.03 390.44 182.94 390.44 184.08C390.44 184.97 389.95 185.82 388.78 186.08L390.53 189H389.44L387.78 186.15H386.68V189H385.77V182.03ZM394.184 184.2C393.294 184.2 392.554 184.79 392.454 185.86H395.914C395.924 184.79 395.124 184.2 394.184 184.2ZM396.744 187.31C396.464 188.31 395.584 189.09 394.224 189.09C392.664 189.09 391.514 187.99 391.514 186.25C391.514 184.52 392.624 183.43 394.224 183.43C395.814 183.43 396.854 184.55 396.854 186.05C396.854 186.25 396.844 186.41 396.824 186.6H392.444C392.514 187.71 393.294 188.32 394.224 188.32C395.044 188.32 395.564 187.9 395.764 187.31H396.744ZM398.965 184.53C399.295 183.95 400.015 183.43 401.015 183.43C402.485 183.43 403.615 184.53 403.615 186.24C403.615 187.94 402.485 189.09 401.015 189.09C400.015 189.09 399.305 188.55 398.965 187.99V191.6H398.055V183.52H398.965V184.53ZM402.685 186.24C402.685 184.95 401.835 184.22 400.825 184.22C399.835 184.22 398.965 184.98 398.965 186.25C398.965 187.54 399.835 188.29 400.825 188.29C401.835 188.29 402.685 187.53 402.685 186.24ZM405.723 186.02V189H404.813V183.52H405.723V184.41C406.033 183.8 406.623 183.42 407.493 183.42V184.36H407.253C406.383 184.36 405.723 184.75 405.723 186.02ZM410.873 184.2C409.983 184.2 409.243 184.79 409.143 185.86H412.603C412.613 184.79 411.813 184.2 410.873 184.2ZM413.433 187.31C413.153 188.31 412.273 189.09 410.913 189.09C409.353 189.09 408.203 187.99 408.203 186.25C408.203 184.52 409.313 183.43 410.913 183.43C412.503 183.43 413.543 184.55 413.543 186.05C413.543 186.25 413.533 186.41 413.513 186.6H409.133C409.203 187.71 409.983 188.32 410.913 188.32C411.733 188.32 412.253 187.9 412.453 187.31H413.433ZM418.685 187.51C418.685 188.41 417.895 189.09 416.685 189.09C415.405 189.09 414.505 188.39 414.445 187.39H415.385C415.435 187.92 415.905 188.32 416.675 188.32C417.395 188.32 417.795 187.96 417.795 187.51C417.795 186.29 414.555 187 414.555 184.96C414.555 184.12 415.345 183.43 416.565 183.43C417.775 183.43 418.575 184.08 418.635 185.15H417.725C417.685 184.6 417.265 184.2 416.535 184.2C415.865 184.2 415.465 184.52 415.465 184.96C415.465 186.26 418.645 185.55 418.685 187.51ZM422.299 184.2C421.409 184.2 420.669 184.79 420.569 185.86H424.029C424.039 184.79 423.239 184.2 422.299 184.2ZM424.859 187.31C424.579 188.31 423.699 189.09 422.339 189.09C420.779 189.09 419.629 187.99 419.629 186.25C419.629 184.52 420.739 183.43 422.339 183.43C423.929 183.43 424.969 184.55 424.969 186.05C424.969 186.25 424.959 186.41 424.939 186.6H420.559C420.629 187.71 421.409 188.32 422.339 188.32C423.159 188.32 423.679 187.9 423.879 187.31H424.859ZM430.18 189V185.9C430.18 184.78 429.57 184.21 428.65 184.21C427.72 184.21 427.08 184.79 427.08 185.97V189H426.17V183.52H427.08V184.3C427.44 183.73 428.1 183.42 428.84 183.42C430.11 183.42 431.08 184.2 431.08 185.77V189H430.18ZM432.767 187.5V184.27H432.057V183.52H432.767V182.14H433.677V183.52H435.107V184.27H433.677V187.5C433.677 188.04 433.877 188.23 434.437 188.23H435.107V189H434.287C433.317 189 432.767 188.6 432.767 187.5ZM435.869 186.24C435.869 184.53 436.999 183.43 438.469 183.43C439.489 183.43 440.189 183.95 440.509 184.52V183.52H441.429V189H440.509V187.98C440.179 188.57 439.469 189.09 438.459 189.09C436.999 189.09 435.869 187.94 435.869 186.24ZM440.509 186.25C440.509 184.98 439.649 184.22 438.649 184.22C437.649 184.22 436.799 184.95 436.799 186.24C436.799 187.53 437.649 188.29 438.649 188.29C439.649 188.29 440.509 187.54 440.509 186.25ZM443.167 187.5V184.27H442.457V183.52H443.167V182.14H444.077V183.52H445.507V184.27H444.077V187.5C444.077 188.04 444.277 188.23 444.837 188.23H445.507V189H444.687C443.717 189 443.167 188.6 443.167 187.5ZM446.61 189V183.52H447.52V189H446.61ZM447.08 182.63C446.73 182.63 446.46 182.36 446.46 182.01C446.46 181.66 446.73 181.39 447.08 181.39C447.41 181.39 447.68 181.66 447.68 182.01C447.68 182.36 447.41 182.63 447.08 182.63ZM454.271 186.25C454.271 187.99 453.021 189.09 451.461 189.09C449.911 189.09 448.731 187.99 448.731 186.25C448.731 184.52 449.951 183.43 451.501 183.43C453.061 183.43 454.271 184.52 454.271 186.25ZM449.661 186.25C449.661 187.64 450.511 188.29 451.461 188.29C452.411 188.29 453.341 187.64 453.341 186.25C453.341 184.87 452.431 184.22 451.491 184.22C450.531 184.22 449.661 184.87 449.661 186.25ZM459.477 189V185.9C459.477 184.78 458.867 184.21 457.947 184.21C457.017 184.21 456.377 184.79 456.377 185.97V189H455.467V183.52H456.377V184.3C456.737 183.73 457.397 183.42 458.137 183.42C459.407 183.42 460.377 184.2 460.377 185.77V189H459.477ZM469.73 186.25C469.73 187.99 468.48 189.09 466.92 189.09C465.37 189.09 464.19 187.99 464.19 186.25C464.19 184.52 465.41 183.43 466.96 183.43C468.52 183.43 469.73 184.52 469.73 186.25ZM465.12 186.25C465.12 187.64 465.97 188.29 466.92 188.29C467.87 188.29 468.8 187.64 468.8 186.25C468.8 184.87 467.89 184.22 466.95 184.22C465.99 184.22 465.12 184.87 465.12 186.25ZM471.096 189V184.27H470.386V183.52H471.096V183.13C471.096 181.91 471.696 181.36 473.096 181.36V182.12C472.276 182.12 472.006 182.42 472.006 183.13V183.52H473.156V184.27H472.006V189H471.096ZM390.3 202.1C390.3 203.09 389.49 204.07 387.98 204.07C386.58 204.07 385.59 203.29 385.57 202.14H386.54C386.6 202.72 387.01 203.3 387.98 203.3C388.86 203.3 389.38 202.8 389.38 202.14C389.38 200.26 385.61 201.46 385.61 198.87C385.61 197.72 386.54 196.94 387.92 196.94C389.25 196.94 390.12 197.67 390.23 198.73H389.23C389.17 198.26 388.73 197.73 387.88 197.72C387.13 197.7 386.54 198.09 386.54 198.84C386.54 200.64 390.3 199.52 390.3 202.1ZM396.839 201.25C396.839 202.99 395.589 204.09 394.029 204.09C392.479 204.09 391.299 202.99 391.299 201.25C391.299 199.52 392.519 198.43 394.069 198.43C395.629 198.43 396.839 199.52 396.839 201.25ZM392.229 201.25C392.229 202.64 393.079 203.29 394.029 203.29C394.979 203.29 395.909 202.64 395.909 201.25C395.909 199.87 394.999 199.22 394.059 199.22C393.099 199.22 392.229 199.87 392.229 201.25ZM398.036 204V196.6H398.946V204H398.036ZM405.357 198.52V204H404.447V203.19C404.097 203.76 403.427 204.08 402.697 204.08C401.437 204.08 400.447 203.3 400.447 201.73V198.52H401.347V201.61C401.347 202.72 401.957 203.29 402.877 203.29C403.817 203.29 404.447 202.71 404.447 201.53V198.52H405.357ZM407.093 202.5V199.27H406.383V198.52H407.093V197.14H408.003V198.52H409.433V199.27H408.003V202.5C408.003 203.04 408.203 203.23 408.763 203.23H409.433V204H408.613C407.643 204 407.093 203.6 407.093 202.5ZM410.536 204V198.52H411.446V204H410.536ZM411.006 197.63C410.656 197.63 410.386 197.36 410.386 197.01C410.386 196.66 410.656 196.39 411.006 196.39C411.336 196.39 411.606 196.66 411.606 197.01C411.606 197.36 411.336 197.63 411.006 197.63ZM418.197 201.25C418.197 202.99 416.947 204.09 415.387 204.09C413.837 204.09 412.657 202.99 412.657 201.25C412.657 199.52 413.877 198.43 415.427 198.43C416.987 198.43 418.197 199.52 418.197 201.25ZM413.587 201.25C413.587 202.64 414.437 203.29 415.387 203.29C416.337 203.29 417.267 202.64 417.267 201.25C417.267 199.87 416.357 199.22 415.417 199.22C414.457 199.22 413.587 199.87 413.587 201.25ZM423.403 204V200.9C423.403 199.78 422.793 199.21 421.873 199.21C420.943 199.21 420.303 199.79 420.303 200.97V204H419.393V198.52H420.303V199.3C420.663 198.73 421.323 198.42 422.063 198.42C423.333 198.42 424.303 199.2 424.303 200.77V204H423.403Z" fill="#313131"/>
<path d="M546.43 170.51C546.43 168.42 547.96 166.94 549.91 166.94C551.42 166.94 552.62 167.7 553.14 169.05H552.05C551.67 168.21 550.93 167.74 549.91 167.74C548.45 167.74 547.36 168.8 547.36 170.51C547.36 172.21 548.45 173.27 549.91 173.27C550.93 173.27 551.67 172.8 552.05 171.97H553.14C552.62 173.31 551.42 174.06 549.91 174.06C547.96 174.06 546.43 172.6 546.43 170.51ZM555.405 171.02V174H554.495V168.52H555.405V169.41C555.715 168.8 556.305 168.42 557.175 168.42V169.36H556.935C556.065 169.36 555.405 169.75 555.405 171.02ZM560.555 169.2C559.665 169.2 558.925 169.79 558.825 170.86H562.285C562.295 169.79 561.495 169.2 560.555 169.2ZM563.115 172.31C562.835 173.31 561.955 174.09 560.595 174.09C559.035 174.09 557.885 172.99 557.885 171.25C557.885 169.52 558.995 168.43 560.595 168.43C562.185 168.43 563.225 169.55 563.225 171.05C563.225 171.25 563.215 171.41 563.195 171.6H558.815C558.885 172.71 559.665 173.32 560.595 173.32C561.415 173.32 561.935 172.9 562.135 172.31H563.115ZM564.086 171.24C564.086 169.53 565.216 168.43 566.686 168.43C567.706 168.43 568.406 168.95 568.726 169.52V168.52H569.646V174H568.726V172.98C568.396 173.57 567.686 174.09 566.676 174.09C565.216 174.09 564.086 172.94 564.086 171.24ZM568.726 171.25C568.726 169.98 567.866 169.22 566.866 169.22C565.866 169.22 565.016 169.95 565.016 171.24C565.016 172.53 565.866 173.29 566.866 173.29C567.866 173.29 568.726 172.54 568.726 171.25ZM571.384 172.5V169.27H570.674V168.52H571.384V167.14H572.294V168.52H573.724V169.27H572.294V172.5C572.294 173.04 572.494 173.23 573.054 173.23H573.724V174H572.904C571.934 174 571.384 173.6 571.384 172.5ZM577.157 169.2C576.267 169.2 575.527 169.79 575.427 170.86H578.887C578.897 169.79 578.097 169.2 577.157 169.2ZM579.717 172.31C579.437 173.31 578.557 174.09 577.197 174.09C575.637 174.09 574.487 172.99 574.487 171.25C574.487 169.52 575.597 168.43 577.197 168.43C578.787 168.43 579.827 169.55 579.827 171.05C579.827 171.25 579.817 171.41 579.797 171.6H575.417C575.487 172.71 576.267 173.32 577.197 173.32C578.017 173.32 578.537 172.9 578.737 172.31H579.717ZM583.674 171.43V167.03H584.584V171.44C584.584 172.72 585.274 173.27 586.304 173.27C587.334 173.27 588.014 172.72 588.014 171.44V167.03H588.924V171.43C588.924 173.24 587.734 174.07 586.294 174.07C584.854 174.07 583.674 173.24 583.674 171.43ZM590.442 174V167.03H591.352V174H590.442ZM595.569 174V167.08H596.549L599.109 172.8L601.669 167.08H602.639V174H601.729V168.84L599.429 174H598.789L596.479 168.83V174H595.569ZM609.382 171.25C609.382 172.99 608.132 174.09 606.572 174.09C605.022 174.09 603.842 172.99 603.842 171.25C603.842 169.52 605.062 168.43 606.612 168.43C608.172 168.43 609.382 169.52 609.382 171.25ZM604.772 171.25C604.772 172.64 605.622 173.29 606.572 173.29C607.522 173.29 608.452 172.64 608.452 171.25C608.452 169.87 607.542 169.22 606.602 169.22C605.642 169.22 604.772 169.87 604.772 171.25ZM610.239 171.25C610.239 169.53 611.349 168.43 612.909 168.43C614.269 168.43 615.159 169.13 615.439 170.28H614.459C614.269 169.62 613.719 169.2 612.909 169.2C611.909 169.2 611.169 169.91 611.169 171.25C611.169 172.61 611.909 173.32 612.909 173.32C613.719 173.32 614.259 172.93 614.459 172.24H615.439C615.159 173.33 614.269 174.09 612.909 174.09C611.349 174.09 610.239 172.99 610.239 171.25ZM616.653 174V166.6H617.563V170.95L619.673 168.52H620.943L618.363 171.25L620.953 174H619.713L617.563 171.58V174H616.653ZM626.659 168.52V174H625.749V173.19C625.399 173.76 624.729 174.08 623.999 174.08C622.739 174.08 621.749 173.3 621.749 171.73V168.52H622.649V171.61C622.649 172.72 623.259 173.29 624.179 173.29C625.119 173.29 625.749 172.71 625.749 171.53V168.52H626.659ZM629.106 169.53C629.436 168.95 630.156 168.43 631.156 168.43C632.626 168.43 633.756 169.53 633.756 171.24C633.756 172.94 632.626 174.09 631.156 174.09C630.156 174.09 629.446 173.55 629.106 172.99V176.6H628.196V168.52H629.106V169.53ZM632.826 171.24C632.826 169.95 631.976 169.22 630.966 169.22C629.976 169.22 629.106 169.98 629.106 171.25C629.106 172.54 629.976 173.29 630.966 173.29C631.976 173.29 632.826 172.53 632.826 171.24ZM638.894 172.51C638.894 173.41 638.104 174.09 636.894 174.09C635.614 174.09 634.714 173.39 634.654 172.39H635.594C635.644 172.92 636.114 173.32 636.884 173.32C637.604 173.32 638.004 172.96 638.004 172.51C638.004 171.29 634.764 172 634.764 169.96C634.764 169.12 635.554 168.43 636.774 168.43C637.984 168.43 638.784 169.08 638.844 170.15H637.934C637.894 169.6 637.474 169.2 636.744 169.2C636.074 169.2 635.674 169.52 635.674 169.96C635.674 171.26 638.854 170.55 638.894 172.51ZM648.044 171.25C648.044 172.99 646.794 174.09 645.234 174.09C643.684 174.09 642.504 172.99 642.504 171.25C642.504 169.52 643.724 168.43 645.274 168.43C646.834 168.43 648.044 169.52 648.044 171.25ZM643.434 171.25C643.434 172.64 644.284 173.29 645.234 173.29C646.184 173.29 647.114 172.64 647.114 171.25C647.114 169.87 646.204 169.22 645.264 169.22C644.304 169.22 643.434 169.87 643.434 171.25ZM649.411 174V169.27H648.701V168.52H649.411V168.13C649.411 166.91 650.011 166.36 651.411 166.36V167.12C650.591 167.12 650.321 167.42 650.321 168.13V168.52H651.471V169.27H650.321V174H649.411ZM551.3 187.1C551.3 188.09 550.49 189.07 548.98 189.07C547.58 189.07 546.59 188.29 546.57 187.14H547.54C547.6 187.72 548.01 188.3 548.98 188.3C549.86 188.3 550.38 187.8 550.38 187.14C550.38 185.26 546.61 186.46 546.61 183.87C546.61 182.72 547.54 181.94 548.92 181.94C550.25 181.94 551.12 182.67 551.23 183.73H550.23C550.17 183.26 549.73 182.73 548.88 182.72C548.13 182.7 547.54 183.09 547.54 183.84C547.54 185.64 551.3 184.52 551.3 187.1ZM557.839 186.25C557.839 187.99 556.589 189.09 555.029 189.09C553.479 189.09 552.299 187.99 552.299 186.25C552.299 184.52 553.519 183.43 555.069 183.43C556.629 183.43 557.839 184.52 557.839 186.25ZM553.229 186.25C553.229 187.64 554.079 188.29 555.029 188.29C555.979 188.29 556.909 187.64 556.909 186.25C556.909 184.87 555.999 184.22 555.059 184.22C554.099 184.22 553.229 184.87 553.229 186.25ZM559.036 189V181.6H559.946V189H559.036ZM566.357 183.52V189H565.447V188.19C565.097 188.76 564.427 189.08 563.697 189.08C562.437 189.08 561.447 188.3 561.447 186.73V183.52H562.347V186.61C562.347 187.72 562.957 188.29 563.877 188.29C564.817 188.29 565.447 187.71 565.447 186.53V183.52H566.357ZM568.093 187.5V184.27H567.383V183.52H568.093V182.14H569.003V183.52H570.433V184.27H569.003V187.5C569.003 188.04 569.203 188.23 569.763 188.23H570.433V189H569.613C568.643 189 568.093 188.6 568.093 187.5ZM571.536 189V183.52H572.446V189H571.536ZM572.006 182.63C571.656 182.63 571.386 182.36 571.386 182.01C571.386 181.66 571.656 181.39 572.006 181.39C572.336 181.39 572.606 181.66 572.606 182.01C572.606 182.36 572.336 182.63 572.006 182.63ZM579.197 186.25C579.197 187.99 577.947 189.09 576.387 189.09C574.837 189.09 573.657 187.99 573.657 186.25C573.657 184.52 574.877 183.43 576.427 183.43C577.987 183.43 579.197 184.52 579.197 186.25ZM574.587 186.25C574.587 187.64 575.437 188.29 576.387 188.29C577.337 188.29 578.267 187.64 578.267 186.25C578.267 184.87 577.357 184.22 576.417 184.22C575.457 184.22 574.587 184.87 574.587 186.25ZM584.403 189V185.9C584.403 184.78 583.793 184.21 582.873 184.21C581.943 184.21 581.303 184.79 581.303 185.97V189H580.393V183.52H581.303V184.3C581.663 183.73 582.323 183.42 583.063 183.42C584.333 183.42 585.303 184.2 585.303 185.77V189H584.403Z" fill="#313131"/>
<path d="M707.43 170.51C707.43 168.42 708.96 166.94 710.91 166.94C712.42 166.94 713.62 167.7 714.14 169.05H713.05C712.67 168.21 711.93 167.74 710.91 167.74C709.45 167.74 708.36 168.8 708.36 170.51C708.36 172.21 709.45 173.27 710.91 173.27C711.93 173.27 712.67 172.8 713.05 171.97H714.14C713.62 173.31 712.42 174.06 710.91 174.06C708.96 174.06 707.43 172.6 707.43 170.51ZM720.695 171.25C720.695 172.99 719.445 174.09 717.885 174.09C716.335 174.09 715.155 172.99 715.155 171.25C715.155 169.52 716.375 168.43 717.925 168.43C719.485 168.43 720.695 169.52 720.695 171.25ZM716.085 171.25C716.085 172.64 716.935 173.29 717.885 173.29C718.835 173.29 719.765 172.64 719.765 171.25C719.765 169.87 718.855 169.22 717.915 169.22C716.955 169.22 716.085 169.87 716.085 171.25ZM725.901 174V170.9C725.901 169.78 725.291 169.21 724.371 169.21C723.441 169.21 722.801 169.79 722.801 170.97V174H721.891V168.52H722.801V169.3C723.161 168.73 723.821 168.42 724.561 168.42C725.831 168.42 726.801 169.2 726.801 170.77V174H725.901ZM727.948 171.24C727.948 169.53 729.078 168.43 730.558 168.43C731.418 168.43 732.208 168.87 732.588 169.5V166.6H733.508V174H732.588V172.97C732.258 173.58 731.548 174.09 730.548 174.09C729.078 174.09 727.948 172.94 727.948 171.24ZM732.588 171.25C732.588 169.98 731.728 169.22 730.728 169.22C729.728 169.22 728.878 169.95 728.878 171.24C728.878 172.53 729.728 173.29 730.728 173.29C731.728 173.29 732.588 172.54 732.588 171.25ZM739.905 168.52V174H738.995V173.19C738.645 173.76 737.975 174.08 737.245 174.08C735.985 174.08 734.995 173.3 734.995 171.73V168.52H735.895V171.61C735.895 172.72 736.505 173.29 737.425 173.29C738.365 173.29 738.995 172.71 738.995 171.53V168.52H739.905ZM741.102 171.25C741.102 169.53 742.212 168.43 743.772 168.43C745.132 168.43 746.022 169.13 746.302 170.28H745.322C745.132 169.62 744.582 169.2 743.772 169.2C742.772 169.2 742.032 169.91 742.032 171.25C742.032 172.61 742.772 173.32 743.772 173.32C744.582 173.32 745.122 172.93 745.322 172.24H746.302C746.022 173.33 745.132 174.09 743.772 174.09C742.212 174.09 741.102 172.99 741.102 171.25ZM747.716 172.5V169.27H747.006V168.52H747.716V167.14H748.626V168.52H750.056V169.27H748.626V172.5C748.626 173.04 748.826 173.23 749.386 173.23H750.056V174H749.236C748.266 174 747.716 173.6 747.716 172.5ZM753.805 171.43V167.03H754.715V171.44C754.715 172.72 755.405 173.27 756.435 173.27C757.465 173.27 758.145 172.72 758.145 171.44V167.03H759.055V171.43C759.055 173.24 757.865 174.07 756.425 174.07C754.985 174.07 753.805 173.24 753.805 171.43ZM764.513 172.51C764.513 173.41 763.723 174.09 762.513 174.09C761.233 174.09 760.333 173.39 760.273 172.39H761.213C761.263 172.92 761.733 173.32 762.503 173.32C763.223 173.32 763.623 172.96 763.623 172.51C763.623 171.29 760.383 172 760.383 169.96C760.383 169.12 761.173 168.43 762.393 168.43C763.603 168.43 764.403 169.08 764.463 170.15H763.553C763.513 169.6 763.093 169.2 762.363 169.2C761.693 169.2 761.293 169.52 761.293 169.96C761.293 171.26 764.473 170.55 764.513 172.51ZM768.127 169.2C767.237 169.2 766.497 169.79 766.397 170.86H769.857C769.867 169.79 769.067 169.2 768.127 169.2ZM770.687 172.31C770.407 173.31 769.527 174.09 768.167 174.09C766.607 174.09 765.457 172.99 765.457 171.25C765.457 169.52 766.567 168.43 768.167 168.43C769.757 168.43 770.797 169.55 770.797 171.05C770.797 171.25 770.787 171.41 770.767 171.6H766.387C766.457 172.71 767.237 173.32 768.167 173.32C768.987 173.32 769.507 172.9 769.707 172.31H770.687ZM772.909 171.02V174H771.999V168.52H772.909V169.41C773.219 168.8 773.809 168.42 774.679 168.42V169.36H774.439C773.569 169.36 772.909 169.75 772.909 171.02ZM777.965 167.77V167.03H782.685V167.77H780.785V174H779.875V167.77H777.965ZM786.135 169.2C785.245 169.2 784.505 169.79 784.405 170.86H787.865C787.875 169.79 787.075 169.2 786.135 169.2ZM788.695 172.31C788.415 173.31 787.535 174.09 786.175 174.09C784.615 174.09 783.465 172.99 783.465 171.25C783.465 169.52 784.575 168.43 786.175 168.43C787.765 168.43 788.805 169.55 788.805 171.05C788.805 171.25 788.795 171.41 788.775 171.6H784.395C784.465 172.71 785.245 173.32 786.175 173.32C786.995 173.32 787.515 172.9 787.715 172.31H788.695ZM793.946 172.51C793.946 173.41 793.156 174.09 791.946 174.09C790.666 174.09 789.766 173.39 789.706 172.39H790.646C790.696 172.92 791.166 173.32 791.936 173.32C792.656 173.32 793.056 172.96 793.056 172.51C793.056 171.29 789.816 172 789.816 169.96C789.816 169.12 790.606 168.43 791.826 168.43C793.036 168.43 793.836 169.08 793.896 170.15H792.986C792.946 169.6 792.526 169.2 791.796 169.2C791.126 169.2 790.726 169.52 790.726 169.96C790.726 171.26 793.906 170.55 793.946 172.51ZM795.431 172.5V169.27H794.721V168.52H795.431V167.14H796.341V168.52H797.771V169.27H796.341V172.5C796.341 173.04 796.541 173.23 797.101 173.23H797.771V174H796.951C795.981 174 795.431 173.6 795.431 172.5ZM798.084 175.43L798.814 172.74H799.814L798.694 175.43H798.084ZM707.77 189V182.03H708.68V189H707.77ZM710.431 187.5V184.27H709.721V183.52H710.431V182.14H711.341V183.52H712.771V184.27H711.341V187.5C711.341 188.04 711.541 188.23 712.101 188.23H712.771V189H711.951C710.981 189 710.431 188.6 710.431 187.5ZM716.204 184.2C715.314 184.2 714.574 184.79 714.474 185.86H717.934C717.944 184.79 717.144 184.2 716.204 184.2ZM718.764 187.31C718.484 188.31 717.604 189.09 716.244 189.09C714.684 189.09 713.534 187.99 713.534 186.25C713.534 184.52 714.644 183.43 716.244 183.43C717.834 183.43 718.874 184.55 718.874 186.05C718.874 186.25 718.864 186.41 718.844 186.6H714.464C714.534 187.71 715.314 188.32 716.244 188.32C717.064 188.32 717.584 187.9 717.784 187.31H718.764ZM720.985 186.02V189H720.075V183.52H720.985V184.41C721.295 183.8 721.885 183.42 722.755 183.42V184.36H722.515C721.645 184.36 720.985 184.75 720.985 186.02ZM723.465 186.24C723.465 184.53 724.595 183.43 726.065 183.43C727.085 183.43 727.785 183.95 728.105 184.52V183.52H729.025V189H728.105V187.98C727.775 188.57 727.065 189.09 726.055 189.09C724.595 189.09 723.465 187.94 723.465 186.24ZM728.105 186.25C728.105 184.98 727.245 184.22 726.245 184.22C725.245 184.22 724.395 184.95 724.395 186.24C724.395 187.53 725.245 188.29 726.245 188.29C727.245 188.29 728.105 187.54 728.105 186.25ZM730.763 187.5V184.27H730.053V183.52H730.763V182.14H731.673V183.52H733.103V184.27H731.673V187.5C731.673 188.04 731.873 188.23 732.433 188.23H733.103V189H732.283C731.313 189 730.763 188.6 730.763 187.5ZM736.536 184.2C735.646 184.2 734.906 184.79 734.806 185.86H738.266C738.276 184.79 737.476 184.2 736.536 184.2ZM739.096 187.31C738.816 188.31 737.936 189.09 736.576 189.09C735.016 189.09 733.866 187.99 733.866 186.25C733.866 184.52 734.976 183.43 736.576 183.43C738.166 183.43 739.206 184.55 739.206 186.05C739.206 186.25 739.196 186.41 739.176 186.6H734.796C734.866 187.71 735.646 188.32 736.576 188.32C737.396 188.32 737.916 187.9 738.116 187.31H739.096ZM742.733 186.24C742.733 184.53 743.863 183.43 745.333 183.43C746.353 183.43 747.053 183.95 747.373 184.52V183.52H748.293V189H747.373V187.98C747.043 188.57 746.333 189.09 745.323 189.09C743.863 189.09 742.733 187.94 742.733 186.24ZM747.373 186.25C747.373 184.98 746.513 184.22 745.513 184.22C744.513 184.22 743.663 184.95 743.663 186.24C743.663 187.53 744.513 188.29 745.513 188.29C746.513 188.29 747.373 187.54 747.373 186.25ZM753.841 189V185.9C753.841 184.78 753.231 184.21 752.311 184.21C751.381 184.21 750.741 184.79 750.741 185.97V189H749.831V183.52H750.741V184.3C751.101 183.73 751.761 183.42 752.501 183.42C753.771 183.42 754.741 184.2 754.741 185.77V189H753.841ZM755.887 186.24C755.887 184.53 757.017 183.43 758.497 183.43C759.357 183.43 760.147 183.87 760.527 184.5V181.6H761.447V189H760.527V187.97C760.197 188.58 759.487 189.09 758.487 189.09C757.017 189.09 755.887 187.94 755.887 186.24ZM760.527 186.25C760.527 184.98 759.667 184.22 758.667 184.22C757.667 184.22 756.817 184.95 756.817 186.24C756.817 187.53 757.667 188.29 758.667 188.29C759.667 188.29 760.527 187.54 760.527 186.25ZM769.381 184.08C769.381 183.29 768.941 182.78 767.901 182.78H766.561V185.42H767.901C768.931 185.42 769.381 184.86 769.381 184.08ZM765.651 182.03H767.901C769.541 182.03 770.321 182.94 770.321 184.08C770.321 184.97 769.831 185.82 768.661 186.08L770.411 189H769.321L767.661 186.15H766.561V189H765.651V182.03ZM774.065 184.2C773.175 184.2 772.435 184.79 772.335 185.86H775.795C775.805 184.79 775.005 184.2 774.065 184.2ZM776.625 187.31C776.345 188.31 775.465 189.09 774.105 189.09C772.545 189.09 771.395 187.99 771.395 186.25C771.395 184.52 772.505 183.43 774.105 183.43C775.695 183.43 776.735 184.55 776.735 186.05C776.735 186.25 776.725 186.41 776.705 186.6H772.325C772.395 187.71 773.175 188.32 774.105 188.32C774.925 188.32 775.445 187.9 775.645 187.31H776.625ZM778.106 189V184.27H777.396V183.52H778.106V183.13C778.106 181.91 778.706 181.36 780.106 181.36V182.12C779.286 182.12 779.016 182.42 779.016 183.13V183.52H780.166V184.27H779.016V189H778.106ZM781.227 189V183.52H782.137V189H781.227ZM781.697 182.63C781.347 182.63 781.077 182.36 781.077 182.01C781.077 181.66 781.347 181.39 781.697 181.39C782.027 181.39 782.297 181.66 782.297 182.01C782.297 182.36 782.027 182.63 781.697 182.63ZM787.698 189V185.9C787.698 184.78 787.088 184.21 786.168 184.21C785.238 184.21 784.598 184.79 784.598 185.97V189H783.688V183.52H784.598V184.3C784.958 183.73 785.618 183.42 786.358 183.42C787.628 183.42 788.598 184.2 788.598 185.77V189H787.698ZM792.414 184.2C791.524 184.2 790.784 184.79 790.684 185.86H794.144C794.154 184.79 793.354 184.2 792.414 184.2ZM794.974 187.31C794.694 188.31 793.814 189.09 792.454 189.09C790.894 189.09 789.744 187.99 789.744 186.25C789.744 184.52 790.854 183.43 792.454 183.43C794.044 183.43 795.084 184.55 795.084 186.05C795.084 186.25 795.074 186.41 795.054 186.6H790.674C790.744 187.71 791.524 188.32 792.454 188.32C793.274 188.32 793.794 187.9 793.994 187.31H794.974Z" fill="#313131"/>
<rect x="224" y="82" width="141" height="60" fill="#FFCE1F"/>
<path d="M271.704 118L270.904 115.728H266.248L265.448 118H263.544L267.528 106.864H269.64L273.624 118H271.704ZM270.392 114.24L268.584 109.072L266.76 114.24H270.392ZM281.612 118V113.072C281.612 111.456 280.732 110.624 279.404 110.624C278.06 110.624 277.18 111.456 277.18 113.072V118H275.356V109.184H277.18V110.192C277.772 109.472 278.748 109.04 279.804 109.04C281.868 109.04 283.42 110.336 283.42 112.8V118H281.612ZM285.139 113.552C285.139 110.832 286.979 109.04 289.299 109.04C290.787 109.04 291.811 109.744 292.355 110.464V109.184H294.195V118H292.355V116.688C291.795 117.44 290.739 118.144 289.267 118.144C286.979 118.144 285.139 116.272 285.139 113.552ZM292.355 113.584C292.355 111.696 291.059 110.624 289.683 110.624C288.323 110.624 287.011 111.648 287.011 113.552C287.011 115.456 288.323 116.56 289.683 116.56C291.059 116.56 292.355 115.488 292.355 113.584ZM296.591 118V106.16H298.415V118H296.591ZM304.281 115.904L306.857 109.184H308.745L303.337 122.144H301.449L303.241 117.856L299.769 109.184H301.801L304.281 115.904ZM315.738 109.184V110.672L311.738 116.512H315.738V118H309.626V116.512L313.642 110.672H309.626V109.184H315.738ZM321.365 110.576C320.133 110.576 319.141 111.408 318.949 112.8H323.829C323.797 111.44 322.725 110.576 321.365 110.576ZM325.493 115.376C324.997 116.912 323.605 118.144 321.445 118.144C318.917 118.144 317.045 116.352 317.045 113.584C317.045 110.816 318.837 109.04 321.445 109.04C323.957 109.04 325.733 110.784 325.733 113.376C325.733 113.68 325.717 113.968 325.669 114.272H318.933C319.061 115.728 320.101 116.608 321.445 116.608C322.565 116.608 323.189 116.064 323.525 115.376H325.493Z" fill="white"/>
<rect x="63" y="82" width="141" height="60" fill="#F35D60"/>
<path d="M74.184 113.936V106.88H76.008V113.968C76.008 115.696 76.984 116.512 78.52 116.512C80.072 116.512 81.048 115.696 81.048 113.968V106.88H82.872V113.936C82.872 116.768 80.824 118.112 78.504 118.112C76.168 118.112 74.184 116.768 74.184 113.936ZM91.5029 118V113.072C91.5029 111.456 90.6229 110.624 89.2949 110.624C87.9509 110.624 87.0709 111.456 87.0709 113.072V118H85.2469V109.184H87.0709V110.192C87.6629 109.472 88.6389 109.04 89.6949 109.04C91.7589 109.04 93.3109 110.336 93.3109 112.8V118H91.5029ZM95.0295 113.552C95.0295 110.832 96.8695 109.04 99.2055 109.04C100.358 109.04 101.574 109.584 102.246 110.416V106.16H104.086V118H102.246V116.672C101.686 117.472 100.63 118.144 99.1895 118.144C96.8695 118.144 95.0295 116.272 95.0295 113.552ZM102.246 113.584C102.246 111.696 100.95 110.624 99.5735 110.624C98.2135 110.624 96.9015 111.648 96.9015 113.552C96.9015 115.456 98.2135 116.56 99.5735 116.56C100.95 116.56 102.246 115.488 102.246 113.584ZM110.193 110.576C108.961 110.576 107.969 111.408 107.777 112.8H112.657C112.625 111.44 111.553 110.576 110.193 110.576ZM114.321 115.376C113.825 116.912 112.433 118.144 110.273 118.144C107.745 118.144 105.873 116.352 105.873 113.584C105.873 110.816 107.665 109.04 110.273 109.04C112.785 109.04 114.561 110.784 114.561 113.376C114.561 113.68 114.545 113.968 114.497 114.272H107.761C107.889 115.728 108.929 116.608 110.273 116.608C111.393 116.608 112.017 116.064 112.353 115.376H114.321ZM118.18 113.36V118H116.356V109.184H118.18V110.464C118.692 109.584 119.572 109.04 120.82 109.04V110.928H120.356C119.012 110.928 118.18 111.488 118.18 113.36ZM129.073 115.536C129.073 117.024 127.777 118.144 125.697 118.144C123.585 118.144 122.097 116.896 122.017 115.296H123.905C123.969 116.016 124.657 116.608 125.665 116.608C126.721 116.608 127.281 116.16 127.281 115.552C127.281 113.824 122.161 114.816 122.161 111.584C122.161 110.176 123.473 109.04 125.553 109.04C127.553 109.04 128.865 110.112 128.961 111.872H127.137C127.073 111.104 126.481 110.576 125.489 110.576C124.513 110.576 124.001 110.976 124.001 111.568C124.001 113.344 128.977 112.352 129.073 115.536ZM131.332 115.552V110.672H130.292V109.184H131.332V106.992H133.172V109.184H135.316V110.672H133.172V115.552C133.172 116.208 133.428 116.48 134.196 116.48H135.316V118H133.876C132.308 118 131.332 117.344 131.332 115.552ZM136.389 113.552C136.389 110.832 138.229 109.04 140.549 109.04C142.037 109.04 143.061 109.744 143.605 110.464V109.184H145.445V118H143.605V116.688C143.045 117.44 141.989 118.144 140.517 118.144C138.229 118.144 136.389 116.272 136.389 113.552ZM143.605 113.584C143.605 111.696 142.309 110.624 140.933 110.624C139.573 110.624 138.261 111.648 138.261 113.552C138.261 115.456 139.573 116.56 140.933 116.56C142.309 116.56 143.605 115.488 143.605 113.584ZM154.097 118V113.072C154.097 111.456 153.217 110.624 151.889 110.624C150.545 110.624 149.665 111.456 149.665 113.072V118H147.841V109.184H149.665V110.192C150.257 109.472 151.233 109.04 152.289 109.04C154.353 109.04 155.905 110.336 155.905 112.8V118H154.097ZM157.623 113.552C157.623 110.832 159.463 109.04 161.799 109.04C162.951 109.04 164.167 109.584 164.839 110.416V106.16H166.679V118H164.839V116.672C164.279 117.472 163.223 118.144 161.783 118.144C159.463 118.144 157.623 116.272 157.623 113.552ZM164.839 113.584C164.839 111.696 163.543 110.624 162.167 110.624C160.807 110.624 159.495 111.648 159.495 113.552C159.495 115.456 160.807 116.56 162.167 116.56C163.543 116.56 164.839 115.488 164.839 113.584ZM169.075 118V109.184H170.899V118H169.075ZM170.003 108.016C169.347 108.016 168.835 107.504 168.835 106.848C168.835 106.192 169.347 105.68 170.003 105.68C170.643 105.68 171.155 106.192 171.155 106.848C171.155 107.504 170.643 108.016 170.003 108.016ZM179.55 118V113.072C179.55 111.456 178.67 110.624 177.342 110.624C175.998 110.624 175.118 111.456 175.118 113.072V118H173.294V109.184H175.118V110.192C175.71 109.472 176.686 109.04 177.742 109.04C179.806 109.04 181.358 110.336 181.358 112.8V118H179.55ZM183.076 113.552C183.076 110.832 184.916 109.04 187.236 109.04C188.676 109.04 189.748 109.712 190.292 110.464V109.184H192.132V118.144C192.132 120.544 190.58 122.352 187.828 122.352C185.476 122.352 183.732 121.184 183.508 119.232H185.316C185.588 120.144 186.564 120.768 187.828 120.768C189.236 120.768 190.292 119.904 190.292 118.144V116.672C189.732 117.424 188.676 118.144 187.236 118.144C184.916 118.144 183.076 116.272 183.076 113.552ZM190.292 113.584C190.292 111.696 188.996 110.624 187.62 110.624C186.26 110.624 184.948 111.648 184.948 113.552C184.948 115.456 186.26 116.56 187.62 116.56C188.996 116.56 190.292 115.488 190.292 113.584Z" fill="white"/>
<rect x="385" y="82" width="141" height="60" fill="#2EA757"/>
<path d="M436.704 114.848C436.704 116.512 435.344 118.112 432.864 118.112C430.64 118.112 428.928 116.896 428.928 114.928H430.88C430.96 115.84 431.6 116.576 432.864 116.576C434.144 116.576 434.864 115.888 434.864 114.944C434.864 112.256 428.96 114 428.96 109.904C428.96 107.952 430.512 106.736 432.784 106.736C434.912 106.736 436.416 107.856 436.576 109.76H434.56C434.496 109.008 433.84 108.32 432.688 108.288C431.632 108.256 430.816 108.768 430.816 109.84C430.816 112.352 436.704 110.784 436.704 114.848ZM438.856 118V106.16H440.68V113.04L443.88 109.184H446.408L442.344 113.6L446.408 118H443.944L440.68 114.208V118H438.856ZM451.428 110.576C450.196 110.576 449.204 111.408 449.012 112.8H453.892C453.86 111.44 452.788 110.576 451.428 110.576ZM455.556 115.376C455.06 116.912 453.668 118.144 451.508 118.144C448.98 118.144 447.108 116.352 447.108 113.584C447.108 110.816 448.9 109.04 451.508 109.04C454.02 109.04 455.796 110.784 455.796 113.376C455.796 113.68 455.78 113.968 455.732 114.272H448.996C449.124 115.728 450.164 116.608 451.508 116.608C452.628 116.608 453.252 116.064 453.588 115.376H455.556ZM457.879 115.552V110.672H456.839V109.184H457.879V106.992H459.719V109.184H461.863V110.672H459.719V115.552C459.719 116.208 459.975 116.48 460.743 116.48H461.863V118H460.423C458.855 118 457.879 117.344 457.879 115.552ZM462.936 113.584C462.936 110.832 464.728 109.04 467.256 109.04C469.416 109.04 470.824 110.112 471.32 111.968H469.352C469.048 111.12 468.344 110.576 467.256 110.576C465.784 110.576 464.808 111.664 464.808 113.584C464.808 115.52 465.784 116.608 467.256 116.608C468.344 116.608 469.016 116.128 469.352 115.216H471.32C470.824 116.944 469.416 118.144 467.256 118.144C464.728 118.144 462.936 116.352 462.936 113.584ZM473.138 118V106.16H474.962V110.208C475.57 109.472 476.562 109.04 477.698 109.04C479.666 109.04 481.202 110.336 481.202 112.8V118H479.394V113.072C479.394 111.456 478.514 110.624 477.186 110.624C475.842 110.624 474.962 111.456 474.962 113.072V118H473.138Z" fill="white"/>
<rect x="546" y="82" width="141" height="60" fill="#528CD0"/>
<path d="M581.024 112H583.04C584.464 112 585.104 111.312 585.104 110.192C585.104 109.04 584.464 108.368 583.04 108.368H581.024V112ZM586.976 110.192C586.976 111.776 585.936 113.488 583.04 113.488H581.024V118H579.2V106.88H583.04C585.68 106.88 586.976 108.384 586.976 110.192ZM590.54 113.36V118H588.716V109.184H590.54V110.464C591.052 109.584 591.932 109.04 593.18 109.04V110.928H592.716C591.372 110.928 590.54 111.488 590.54 113.36ZM603.256 113.584C603.256 116.352 601.208 118.144 598.68 118.144C596.168 118.144 594.264 116.352 594.264 113.584C594.264 110.816 596.248 109.04 598.76 109.04C601.272 109.04 603.256 110.816 603.256 113.584ZM596.12 113.584C596.12 115.584 597.304 116.56 598.68 116.56C600.04 116.56 601.384 115.584 601.384 113.584C601.384 111.584 600.088 110.624 598.728 110.624C597.352 110.624 596.12 111.584 596.12 113.584ZM605.347 115.552V110.672H604.307V109.184H605.347V106.992H607.187V109.184H609.331V110.672H607.187V115.552C607.187 116.208 607.443 116.48 608.211 116.48H609.331V118H607.891C606.323 118 605.347 117.344 605.347 115.552ZM619.413 113.584C619.413 116.352 617.365 118.144 614.837 118.144C612.325 118.144 610.421 116.352 610.421 113.584C610.421 110.816 612.405 109.04 614.917 109.04C617.429 109.04 619.413 110.816 619.413 113.584ZM612.277 113.584C612.277 115.584 613.461 116.56 614.837 116.56C616.197 116.56 617.541 115.584 617.541 113.584C617.541 111.584 616.245 110.624 614.885 110.624C613.509 110.624 612.277 111.584 612.277 113.584ZM621.504 115.552V110.672H620.464V109.184H621.504V106.992H623.344V109.184H625.488V110.672H623.344V115.552C623.344 116.208 623.6 116.48 624.368 116.48H625.488V118H624.048C622.48 118 621.504 117.344 621.504 115.552ZM630.641 115.904L633.217 109.184H635.105L629.697 122.144H627.809L629.601 117.856L626.129 109.184H628.161L630.641 115.904ZM638.305 110.48C638.865 109.744 639.937 109.04 641.377 109.04C643.697 109.04 645.521 110.832 645.521 113.552C645.521 116.272 643.697 118.144 641.377 118.144C639.921 118.144 638.881 117.408 638.305 116.72V122.192H636.481V109.184H638.305V110.48ZM643.665 113.552C643.665 111.648 642.353 110.624 640.977 110.624C639.617 110.624 638.305 111.696 638.305 113.584C638.305 115.488 639.617 116.56 640.977 116.56C642.353 116.56 643.665 115.456 643.665 113.552ZM651.037 110.576C649.805 110.576 648.813 111.408 648.621 112.8H653.501C653.469 111.44 652.397 110.576 651.037 110.576ZM655.165 115.376C654.669 116.912 653.277 118.144 651.117 118.144C648.589 118.144 646.717 116.352 646.717 113.584C646.717 110.816 648.509 109.04 651.117 109.04C653.629 109.04 655.405 110.784 655.405 113.376C655.405 113.68 655.389 113.968 655.341 114.272H648.605C648.733 115.728 649.773 116.608 651.117 116.608C652.237 116.608 652.861 116.064 653.197 115.376H655.165Z" fill="white"/>
<rect x="707" y="82" width="141" height="60" fill="#8057C1"/>
<path d="M761.624 108.368V106.88H769.384V108.368H766.424V118H764.6V108.368H761.624ZM774.943 110.576C773.711 110.576 772.719 111.408 772.527 112.8H777.407C777.375 111.44 776.303 110.576 774.943 110.576ZM779.071 115.376C778.575 116.912 777.183 118.144 775.023 118.144C772.495 118.144 770.623 116.352 770.623 113.584C770.623 110.816 772.415 109.04 775.023 109.04C777.535 109.04 779.311 110.784 779.311 113.376C779.311 113.68 779.295 113.968 779.247 114.272H772.511C772.639 115.728 773.679 116.608 775.023 116.608C776.143 116.608 776.767 116.064 777.103 115.376H779.071ZM787.682 115.536C787.682 117.024 786.386 118.144 784.306 118.144C782.194 118.144 780.706 116.896 780.626 115.296H782.514C782.578 116.016 783.266 116.608 784.274 116.608C785.33 116.608 785.89 116.16 785.89 115.552C785.89 113.824 780.77 114.816 780.77 111.584C780.77 110.176 782.082 109.04 784.162 109.04C786.162 109.04 787.474 110.112 787.57 111.872H785.746C785.682 111.104 785.09 110.576 784.098 110.576C783.122 110.576 782.61 110.976 782.61 111.568C782.61 113.344 787.586 112.352 787.682 115.536ZM789.941 115.552V110.672H788.901V109.184H789.941V106.992H791.781V109.184H793.925V110.672H791.781V115.552C791.781 116.208 792.037 116.48 792.805 116.48H793.925V118H792.485C790.917 118 789.941 117.344 789.941 115.552Z" fill="white"/>
</svg>
