<svg width="29" height="32" viewBox="0 0 29 32" fill="none" xmlns="http://www.w3.org/2000/svg">
<path fill-rule="evenodd" clip-rule="evenodd" d="M16.6691 31.0877C16.0986 31.6719 15.3252 32 14.5188 32C13.7124 32 12.9391 31.6719 12.3685 31.0877L0.890808 19.3252C0.320246 18.74 -0.000189 17.9464 1.77101e-06 17.119C0.000192542 16.2916 0.320988 15.4982 0.891819 14.9132C1.46265 14.3283 2.23676 13.9998 3.04385 14C3.85093 14.0002 4.62489 14.3291 5.19545 14.9143L14.5188 24.4723L23.8422 14.9143C24.4158 14.3457 25.1843 14.0309 25.9821 14.0377C26.78 14.0444 27.5433 14.3721 28.1077 14.9502C28.6722 15.5283 28.9926 16.3106 28.9999 17.1285C29.0072 17.9464 28.7008 18.7345 28.1468 19.3231L16.6711 31.0898L16.6691 31.0877Z" fill="#9AD2A9"/>
<path fill-rule="evenodd" clip-rule="evenodd" d="M16.6691 17.0877C16.0986 17.6719 15.3252 18 14.5188 18C13.7124 18 12.9391 17.6719 12.3685 17.0877L0.890808 5.3252C0.320246 4.74 -0.000189 3.94641 1.77101e-06 3.119C0.000192542 2.2916 0.320988 1.49816 0.891819 0.91323C1.46265 0.328303 2.23676 -0.000196088 3.04385 -1.04781e-06C3.85093 0.000193992 4.62489 0.329067 5.19545 0.914269L14.5188 10.4723L23.8422 0.91427C24.4158 0.345749 25.1843 0.0309476 25.9821 0.0376669C26.78 0.0443862 27.5433 0.372088 28.1077 0.950194C28.6722 1.5283 28.9926 2.31055 28.9999 3.12847C29.0072 3.94638 28.7008 4.73452 28.1468 5.32313L16.6711 17.0898L16.6691 17.0877Z" fill="#9AD2A9"/>
</svg>
