<svg width="29" height="29" viewBox="0 0 29 29" fill="none" xmlns="http://www.w3.org/2000/svg">
<path fill-rule="evenodd" clip-rule="evenodd" d="M14.5 0C6.497 0 0 6.497 0 14.5C0 22.503 6.497 29 14.5 29C22.502 29 29 22.503 29 14.5C29 6.497 22.502 0 14.5 0ZM23.992 24.095C21.895 21.107 18.424 19.152 14.5 19.152C10.575 19.152 7.10402 21.107 5.00702 24.095C7.44602 26.509 10.8 28 14.5 28C18.199 28 21.553 26.509 23.992 24.095ZM24.69 23.351C26.751 20.981 28 17.885 28 14.5C28 7.049 21.95 1 14.5 1C7.049 1 1 7.049 1 14.5C1 17.885 2.24802 20.981 4.30902 23.351C6.59802 20.202 10.312 18.152 14.5 18.152C18.688 18.152 22.401 20.202 24.69 23.351ZM14.5 3.793C10.903 3.793 7.98303 6.71301 7.98303 10.31C7.98303 13.906 10.903 16.826 14.5 16.826C18.096 16.826 21.016 13.906 21.016 10.31C21.016 6.71301 18.096 3.793 14.5 3.793ZM14.5 4.793C17.544 4.793 20.016 7.26501 20.016 10.31C20.016 13.354 17.544 15.826 14.5 15.826C11.455 15.826 8.98303 13.354 8.98303 10.31C8.98303 7.26501 11.455 4.793 14.5 4.793Z" fill="white"/>
</svg>
