<svg width="104" height="104" viewBox="0 0 104 104" fill="none" xmlns="http://www.w3.org/2000/svg">
<circle cx="51.9961" cy="51.7627" r="32.4027" transform="rotate(-50.4421 51.9961 51.7627)" fill="white" stroke="#F9BBBC" stroke-width="2"/>
<path d="M44.2796 43.2284C44.214 42.6635 44.3763 42.1051 44.7309 41.6758C45.0855 41.2466 45.6032 40.9817 46.1704 40.9395L59.7816 39.9279C60.3488 39.8859 60.9188 40.0699 61.3662 40.4395C61.8137 40.8091 62.1021 41.3341 62.1678 41.899L63.7446 55.4564C63.7998 56.0157 63.6322 56.5651 63.2777 56.9863C62.9233 57.4076 62.4104 57.667 61.8496 57.7087C61.2888 57.7504 60.7249 57.571 60.2794 57.2092C59.8339 56.8474 59.5424 56.3321 59.4677 55.7743L58.374 47.4989L45.6709 62.8772C45.3163 63.3066 44.7984 63.5714 44.2311 63.6136C43.6639 63.6558 43.0938 63.4717 42.6462 63.102C42.1986 62.7323 41.9103 62.2072 41.8446 61.6422C41.7788 61.0772 41.9412 60.5186 42.2958 60.0893L54.9989 44.7109L46.6658 45.1995C46.0987 45.2416 45.5287 45.0576 45.0812 44.6879C44.6337 44.3183 44.3454 43.7933 44.2796 43.2284Z" fill="#F9BBBC"/>
</svg>
