<svg width="47" height="48" viewBox="0 0 47 48" fill="none" xmlns="http://www.w3.org/2000/svg">
<path d="M41.4241 45.0298H5.56736C4.771 45.0289 4.00751 44.7077 3.4444 44.1365C2.88129 43.5654 2.56453 42.7911 2.56363 41.9834V8.9531C2.56453 8.1454 2.88129 7.37105 3.4444 6.79993C4.00751 6.2288 4.771 5.90754 5.56736 5.90662H9.05818C9.1715 5.90662 9.28017 5.95228 9.3603 6.03355C9.44043 6.11482 9.48545 6.22504 9.48545 6.33997V8.46341C9.48545 8.6519 9.55927 8.83267 9.69069 8.96595C9.8221 9.09923 10.0003 9.17411 10.1862 9.17411C10.372 9.17411 10.5503 9.09923 10.6817 8.96595C10.8131 8.83267 10.8869 8.6519 10.8869 8.46341V6.33997C10.8869 6.22504 10.9319 6.11482 11.012 6.03355C11.0922 5.95228 11.2009 5.90662 11.3142 5.90662H15.7151C15.8284 5.90662 15.9371 5.95228 16.0172 6.03355C16.0973 6.11482 16.1424 6.22504 16.1424 6.33997V8.46341C16.1414 8.55701 16.1588 8.64987 16.1937 8.73654C16.2286 8.82322 16.2802 8.90196 16.3454 8.96815C16.4107 9.03434 16.4883 9.08665 16.5738 9.12202C16.6592 9.15739 16.7508 9.1751 16.8431 9.17411C17.0289 9.17388 17.207 9.09894 17.3385 8.96572C17.4699 8.8325 17.5439 8.65187 17.5442 8.46341V6.33997C17.5442 6.22504 17.5893 6.11482 17.6694 6.03355C17.7495 5.95228 17.8582 5.90662 17.9715 5.90662H22.3677C22.481 5.90662 22.5897 5.95228 22.6698 6.03355C22.75 6.11482 22.795 6.22504 22.795 6.33997V8.46341C22.795 8.6519 22.8688 8.83267 23.0002 8.96595C23.1316 9.09923 23.3099 9.17411 23.4957 9.17411C23.6816 9.17411 23.8598 9.09923 23.9912 8.96595C24.1226 8.83267 24.1964 8.6519 24.1964 8.46341V6.33997C24.1964 6.22504 24.2415 6.11482 24.3216 6.03355C24.4017 5.95228 24.5104 5.90662 24.6237 5.90662H29.0246C29.138 5.90662 29.2466 5.95228 29.3268 6.03355C29.4069 6.11482 29.4519 6.22504 29.4519 6.33997V8.46341C29.4519 8.6519 29.5257 8.83267 29.6571 8.96595C29.7886 9.09923 29.9668 9.17411 30.1526 9.17411C30.3385 9.17411 30.5167 9.09923 30.6481 8.96595C30.7795 8.83267 30.8534 8.6519 30.8534 8.46341V6.33997C30.8534 6.22504 30.8984 6.11482 30.9785 6.03355C31.0586 5.95228 31.1673 5.90662 31.2806 5.90662H35.6773C35.7906 5.90662 35.8993 5.95228 35.9794 6.03355C36.0595 6.11482 36.1045 6.22504 36.1045 6.33997V8.46341C36.1048 8.65183 36.1787 8.83246 36.31 8.9657C36.4414 9.09893 36.6195 9.17388 36.8053 9.17411C36.8976 9.17515 36.9892 9.15749 37.0746 9.12214C37.1601 9.08679 37.2378 9.03448 37.3031 8.96828C37.3683 8.90208 37.4199 8.82331 37.4548 8.73661C37.4896 8.64992 37.507 8.55703 37.506 8.46341V6.33997C37.506 6.22504 37.551 6.11482 37.6311 6.03355C37.7113 5.95228 37.82 5.90662 37.9333 5.90662H41.4326C41.8268 5.90604 42.2173 5.98451 42.5815 6.13752C42.9457 6.29052 43.2765 6.51504 43.5548 6.79816C43.8332 7.08128 44.0536 7.41742 44.2034 7.78724C44.3532 8.15706 44.4295 8.55328 44.4278 8.9531V41.9834C44.4269 42.7911 44.1102 43.5654 43.547 44.1365C42.9839 44.7077 42.2204 45.0289 41.4241 45.0298ZM5.56736 6.77333C4.99757 6.77402 4.45131 7.00389 4.04841 7.41253C3.6455 7.82117 3.41885 8.3752 3.41817 8.9531V41.9834C3.41885 42.5613 3.6455 43.1153 4.04841 43.5239C4.45131 43.9326 4.99757 44.1624 5.56736 44.1631H41.4241C41.9939 44.1626 42.5402 43.9327 42.9432 43.5241C43.3461 43.1154 43.5727 42.5613 43.5733 41.9834V8.9531C43.5754 8.66699 43.5215 8.38329 43.4148 8.11844C43.308 7.85359 43.1506 7.61283 42.9515 7.41011C42.7524 7.20739 42.5157 7.04673 42.2549 6.93742C41.9942 6.82812 41.7147 6.77235 41.4326 6.77333H38.3605V8.46341C38.3605 8.88176 38.1967 9.28298 37.905 9.57881C37.6133 9.87463 37.2178 10.0408 36.8053 10.0408C36.3928 10.0408 35.9972 9.87463 35.7055 9.57881C35.4139 9.28298 35.25 8.88176 35.25 8.46341V6.77333H31.7079V8.46341C31.7079 8.88176 31.544 9.28298 31.2524 9.57881C30.9607 9.87463 30.5651 10.0408 30.1526 10.0408C29.7401 10.0408 29.3446 9.87463 29.0529 9.57881C28.7612 9.28298 28.5974 8.88176 28.5974 8.46341V6.77333H25.051V8.46341C25.051 8.88176 24.8871 9.28298 24.5955 9.57881C24.3038 9.87463 23.9082 10.0408 23.4957 10.0408C23.0832 10.0408 22.6876 9.87463 22.396 9.57881C22.1043 9.28298 21.9404 8.88176 21.9404 8.46341V6.77333H18.3988V8.46341C18.392 8.87729 18.2252 9.27191 17.9342 9.56217C17.6432 9.85244 17.2514 10.0151 16.8433 10.0151C16.4352 10.0151 16.0434 9.85244 15.7524 9.56217C15.4614 9.27191 15.2946 8.87729 15.2878 8.46341V6.77333H11.7414V8.46341C11.7414 8.88176 11.5776 9.28298 11.2859 9.57881C10.9942 9.87463 10.5987 10.0408 10.1862 10.0408C9.77369 10.0408 9.3781 9.87463 9.08643 9.57881C8.79476 9.28298 8.6309 8.88176 8.6309 8.46341V6.77333H5.56736Z" fill="white"/>
<path d="M44.0091 14.9421H2.9909C2.87758 14.9421 2.7689 14.8964 2.68877 14.8151C2.60865 14.7339 2.56363 14.6236 2.56363 14.5087V8.9531C2.56453 8.14541 2.88129 7.37106 3.4444 6.79993C4.00751 6.2288 4.771 5.90754 5.56736 5.90662H9.05818C9.17149 5.90662 9.28017 5.95228 9.3603 6.03355C9.44043 6.11482 9.48545 6.22504 9.48545 6.33998V8.46341C9.48545 8.6519 9.55927 8.83267 9.69069 8.96595C9.8221 9.09924 10.0003 9.17411 10.1862 9.17411C10.372 9.17411 10.5503 9.09924 10.6817 8.96595C10.8131 8.83267 10.8869 8.6519 10.8869 8.46341V6.33998C10.8869 6.22504 10.9319 6.11482 11.012 6.03355C11.0922 5.95228 11.2009 5.90662 11.3142 5.90662H15.7151C15.8284 5.90662 15.9371 5.95228 16.0172 6.03355C16.0973 6.11482 16.1424 6.22504 16.1424 6.33998V8.46341C16.1413 8.55703 16.1587 8.64992 16.1936 8.73662C16.2284 8.82331 16.28 8.90208 16.3453 8.96828C16.4106 9.03449 16.4882 9.0868 16.5737 9.12214C16.6592 9.15749 16.7508 9.17516 16.8431 9.17411C17.0289 9.17388 17.207 9.09895 17.3385 8.96573C17.4699 8.83251 17.5439 8.65187 17.5442 8.46341V6.33998C17.5442 6.22504 17.5893 6.11482 17.6694 6.03355C17.7495 5.95228 17.8582 5.90662 17.9715 5.90662H22.3677C22.481 5.90662 22.5897 5.95228 22.6698 6.03355C22.75 6.11482 22.795 6.22504 22.795 6.33998V8.46341C22.795 8.6519 22.8688 8.83267 23.0002 8.96595C23.1316 9.09924 23.3099 9.17411 23.4957 9.17411C23.6816 9.17411 23.8598 9.09924 23.9912 8.96595C24.1226 8.83267 24.1964 8.6519 24.1964 8.46341V6.33998C24.1964 6.22504 24.2415 6.11482 24.3216 6.03355C24.4017 5.95228 24.5104 5.90662 24.6237 5.90662H29.0246C29.1379 5.90662 29.2466 5.95228 29.3268 6.03355C29.4069 6.11482 29.4519 6.22504 29.4519 6.33998V8.46341C29.4519 8.6519 29.5257 8.83267 29.6571 8.96595C29.7886 9.09924 29.9668 9.17411 30.1526 9.17411C30.3385 9.17411 30.5167 9.09924 30.6481 8.96595C30.7795 8.83267 30.8534 8.6519 30.8534 8.46341V6.33998C30.8534 6.22504 30.8984 6.11482 30.9785 6.03355C31.0586 5.95228 31.1673 5.90662 31.2806 5.90662H35.6773C35.7906 5.90662 35.8993 5.95228 35.9794 6.03355C36.0595 6.11482 36.1045 6.22504 36.1045 6.33998V8.46341C36.1048 8.65183 36.1787 8.83247 36.31 8.9657C36.4414 9.09893 36.6195 9.17388 36.8053 9.17411C36.8976 9.17516 36.9892 9.15749 37.0746 9.12214C37.1601 9.0868 37.2378 9.03449 37.3031 8.96828C37.3683 8.90208 37.4199 8.82331 37.4548 8.73662C37.4896 8.64992 37.507 8.55703 37.506 8.46341V6.33998C37.506 6.22504 37.551 6.11482 37.6311 6.03355C37.7113 5.95228 37.8199 5.90662 37.9333 5.90662H41.4326C42.0234 5.90554 42.6013 6.08194 43.0934 6.41357C43.5854 6.7452 43.9696 7.21721 44.1975 7.77004C44.3562 8.14364 44.4375 8.54632 44.4364 8.9531V14.5087C44.4364 14.6236 44.3913 14.7339 44.3112 14.8151C44.2311 14.8964 44.1224 14.9421 44.0091 14.9421ZM3.41817 14.0753H43.5818V8.9531C43.5821 8.66411 43.5239 8.37813 43.4109 8.11283C43.2487 7.71619 42.9742 7.37724 42.622 7.13882C42.2699 6.9004 41.856 6.77321 41.4326 6.77333H38.3605V8.46341C38.3605 8.88177 38.1967 9.28299 37.905 9.57881C37.6133 9.87463 37.2178 10.0408 36.8053 10.0408C36.3928 10.0408 35.9972 9.87463 35.7055 9.57881C35.4139 9.28299 35.25 8.88177 35.25 8.46341V6.77333H31.7079V8.46341C31.7079 8.88177 31.544 9.28299 31.2524 9.57881C30.9607 9.87463 30.5651 10.0408 30.1526 10.0408C29.7401 10.0408 29.3446 9.87463 29.0529 9.57881C28.7612 9.28299 28.5974 8.88177 28.5974 8.46341V6.77333H25.051V8.46341C25.051 8.88177 24.8871 9.28299 24.5955 9.57881C24.3038 9.87463 23.9082 10.0408 23.4957 10.0408C23.0832 10.0408 22.6876 9.87463 22.396 9.57881C22.1043 9.28299 21.9404 8.88177 21.9404 8.46341V6.77333H18.3988V8.46341C18.392 8.8773 18.2252 9.27191 17.9342 9.56217C17.6432 9.85244 17.2514 10.0151 16.8433 10.0151C16.4352 10.0151 16.0434 9.85244 15.7524 9.56217C15.4614 9.27191 15.2946 8.8773 15.2878 8.46341V6.77333H11.7414V8.46341C11.7414 8.88177 11.5776 9.28299 11.2859 9.57881C10.9942 9.87463 10.5987 10.0408 10.1862 10.0408C9.77369 10.0408 9.3781 9.87463 9.08643 9.57881C8.79476 9.28299 8.6309 8.88177 8.6309 8.46341V6.77333H5.56736C4.99757 6.77402 4.45131 7.00389 4.0484 7.41253C3.6455 7.82117 3.41885 8.3752 3.41817 8.9531V14.0753Z" fill="white"/>
<path d="M10.1862 10.0408C9.77385 10.0404 9.37852 9.87402 9.08695 9.5783C8.79538 9.28258 8.63137 8.88163 8.63092 8.46341V4.21654C8.63092 3.79818 8.79478 3.39696 9.08645 3.10114C9.37812 2.80532 9.77371 2.63913 10.1862 2.63913C10.5987 2.63913 10.9943 2.80532 11.2859 3.10114C11.5776 3.39696 11.7415 3.79818 11.7415 4.21654V8.46341C11.741 8.88163 11.577 9.28258 11.2854 9.5783C10.9939 9.87402 10.5985 10.0404 10.1862 10.0408ZM10.1862 3.50584C10.0004 3.50607 9.82232 3.58102 9.69095 3.71425C9.55959 3.84748 9.48569 4.02812 9.48547 4.21654V8.46341C9.48547 8.6519 9.55929 8.83267 9.6907 8.96595C9.82212 9.09923 10.0003 9.17411 10.1862 9.17411C10.372 9.17411 10.5503 9.09923 10.6817 8.96595C10.8131 8.83267 10.8869 8.6519 10.8869 8.46341V4.21654C10.8867 4.02812 10.8128 3.84748 10.6814 3.71425C10.5501 3.58102 10.372 3.50607 10.1862 3.50584Z" fill="white"/>
<path d="M16.8431 10.0408C16.4307 10.0404 16.0354 9.87403 15.7438 9.57831C15.4523 9.28259 15.2883 8.88164 15.2878 8.46342V4.21655C15.2946 3.80267 15.4614 3.40805 15.7524 3.11779C16.0434 2.82752 16.4352 2.66486 16.8433 2.66486C17.2514 2.66486 17.6432 2.82752 17.9342 3.11779C18.2252 3.40805 18.392 3.80267 18.3988 4.21655V8.46342C18.3983 8.88171 18.2343 9.28273 17.9426 9.57846C17.6509 9.8742 17.2555 10.0405 16.8431 10.0408ZM16.8431 3.50585C16.7508 3.50486 16.6592 3.52257 16.5738 3.55794C16.4883 3.59331 16.4107 3.64562 16.3454 3.71181C16.2802 3.778 16.2286 3.85674 16.1937 3.94342C16.1588 4.03009 16.1414 4.12295 16.1424 4.21655V8.46342C16.1414 8.55703 16.1588 8.64989 16.1937 8.73656C16.2286 8.82323 16.2802 8.90197 16.3454 8.96816C16.4107 9.03435 16.4883 9.08666 16.5738 9.12203C16.6592 9.1574 16.7508 9.17511 16.8431 9.17412C17.0289 9.17389 17.207 9.09896 17.3385 8.96574C17.4699 8.83252 17.5439 8.65188 17.5442 8.46342V4.21655C17.5439 4.02809 17.4699 3.84746 17.3385 3.71424C17.207 3.58102 17.0289 3.50608 16.8431 3.50585Z" fill="white"/>
<path d="M23.4957 10.0408C23.0834 10.0404 22.6881 9.87402 22.3965 9.5783C22.1049 9.28258 21.9409 8.88163 21.9405 8.46341V4.21654C21.9405 3.79818 22.1043 3.39696 22.396 3.10114C22.6877 2.80532 23.0833 2.63913 23.4957 2.63913C23.9082 2.63913 24.3038 2.80532 24.5955 3.10114C24.8871 3.39696 25.051 3.79818 25.051 4.21654V8.46341C25.0506 8.88163 24.8865 9.28258 24.595 9.5783C24.3034 9.87402 23.9081 10.0404 23.4957 10.0408ZM23.4957 3.50584C23.31 3.50607 23.1319 3.58102 23.0005 3.71425C22.8691 3.84748 22.7952 4.02812 22.795 4.21654V8.46341C22.795 8.6519 22.8688 8.83267 23.0002 8.96595C23.1317 9.09923 23.3099 9.17411 23.4957 9.17411C23.6816 9.17411 23.8598 9.09923 23.9912 8.96595C24.1226 8.83267 24.1965 8.6519 24.1965 8.46341V4.21654C24.1962 4.02812 24.1223 3.84748 23.991 3.71425C23.8596 3.58102 23.6815 3.50607 23.4957 3.50584Z" fill="white"/>
<path d="M30.1526 10.0408C29.7403 10.0404 29.345 9.87402 29.0534 9.5783C28.7618 9.28258 28.5978 8.88163 28.5974 8.46341V4.21654C28.5974 3.79818 28.7612 3.39696 29.0529 3.10114C29.3446 2.80532 29.7401 2.63913 30.1526 2.63913C30.5651 2.63913 30.9607 2.80532 31.2524 3.10114C31.544 3.39696 31.7079 3.79818 31.7079 4.21654V8.46341C31.7074 8.88163 31.5434 9.28258 31.2519 9.5783C30.9603 9.87402 30.565 10.0404 30.1526 10.0408ZM30.1526 3.50584C29.9668 3.50607 29.7887 3.58102 29.6574 3.71425C29.526 3.84748 29.4521 4.02812 29.4519 4.21654V8.46341C29.4519 8.6519 29.5257 8.83267 29.6571 8.96595C29.7885 9.09923 29.9668 9.17411 30.1526 9.17411C30.3385 9.17411 30.5167 9.09923 30.6481 8.96595C30.7795 8.83267 30.8534 8.6519 30.8534 8.46341V4.21654C30.8531 4.02812 30.7792 3.84748 30.6479 3.71425C30.5165 3.58102 30.3384 3.50607 30.1526 3.50584Z" fill="white"/>
<path d="M36.8053 10.0408C36.3929 10.0404 35.9976 9.87402 35.706 9.5783C35.4145 9.28258 35.2505 8.88163 35.25 8.46341V4.21654C35.25 3.79818 35.4139 3.39696 35.7055 3.10114C35.9972 2.80532 36.3928 2.63913 36.8053 2.63913C37.2178 2.63913 37.6133 2.80532 37.905 3.10114C38.1967 3.39696 38.3605 3.79818 38.3605 4.21654V8.46341C38.3601 8.88163 38.1961 9.28258 37.9045 9.5783C37.6129 9.87402 37.2176 10.0404 36.8053 10.0408ZM36.8053 3.50584C36.6195 3.50607 36.4414 3.58102 36.31 3.71425C36.1787 3.84748 36.1048 4.02812 36.1045 4.21654V8.46341C36.1048 8.65183 36.1787 8.83247 36.31 8.9657C36.4414 9.09893 36.6195 9.17388 36.8053 9.17411C36.8976 9.17516 36.9892 9.15749 37.0746 9.12214C37.1601 9.0868 37.2378 9.03448 37.3031 8.96828C37.3683 8.90208 37.4199 8.82331 37.4548 8.73662C37.4896 8.64992 37.507 8.55703 37.506 8.46341V4.21654C37.507 4.12292 37.4896 4.03003 37.4548 3.94333C37.4199 3.85664 37.3683 3.77787 37.3031 3.71167C37.2378 3.64547 37.1601 3.59315 37.0746 3.55781C36.9892 3.52246 36.8976 3.50479 36.8053 3.50584Z" fill="white"/>
<path d="M15.6946 18.1103H6.61334C6.50002 18.1103 6.39134 18.0646 6.31121 17.9834C6.23108 17.9021 6.18607 17.7919 6.18607 17.6769C6.18607 17.562 6.23108 17.4518 6.31121 17.3705C6.39134 17.2892 6.50002 17.2436 6.61334 17.2436H15.6946C15.8079 17.2436 15.9166 17.2892 15.9967 17.3705C16.0768 17.4518 16.1219 17.562 16.1219 17.6769C16.1219 17.7919 16.0768 17.9021 15.9967 17.9834C15.9166 18.0646 15.8079 18.1103 15.6946 18.1103Z" fill="white"/>
<path d="M12.4255 21.0177H6.61462C6.5013 21.0177 6.39262 20.972 6.31249 20.8908C6.23236 20.8095 6.18735 20.6993 6.18735 20.5843C6.18735 20.4694 6.23236 20.3592 6.31249 20.2779C6.39262 20.1966 6.5013 20.151 6.61462 20.151H12.4255C12.5388 20.151 12.6475 20.1966 12.7277 20.2779C12.8078 20.3592 12.8528 20.4694 12.8528 20.5843C12.8528 20.6993 12.8078 20.8095 12.7277 20.8908C12.6475 20.972 12.5388 21.0177 12.4255 21.0177Z" fill="white"/>
<path d="M17.8955 38.5252C17.8332 38.5252 17.7718 38.5115 17.7153 38.4849C17.6589 38.4583 17.6088 38.4195 17.5687 38.3713C17.5286 38.323 17.4993 38.2664 17.483 38.2055C17.4667 38.1446 17.4637 38.0808 17.4742 38.0186L18.5043 31.9127L14.1282 27.5882C14.0711 27.5318 14.0307 27.4603 14.0115 27.3817C13.9924 27.3032 13.9953 27.2208 14.0199 27.1439C14.0446 27.067 14.0899 26.9986 14.1509 26.9465C14.2119 26.8943 14.286 26.8605 14.3649 26.8489L20.4117 25.9553L23.1155 20.3984C23.1548 20.331 23.2108 20.2751 23.2779 20.2362C23.3451 20.1974 23.421 20.177 23.4983 20.177C23.5756 20.177 23.6515 20.1974 23.7187 20.2362C23.7858 20.2751 23.8418 20.331 23.8811 20.3984L26.5866 25.9553L32.6351 26.8489C32.714 26.8605 32.7882 26.8943 32.8491 26.9465C32.9101 26.9986 32.9555 27.067 32.9801 27.1439C33.0047 27.2208 33.0076 27.3032 32.9885 27.3817C32.9694 27.4603 32.9289 27.5318 32.8718 27.5882L28.4957 31.914L29.5293 38.0195C29.5428 38.0991 29.534 38.1811 29.504 38.256C29.474 38.3309 29.424 38.3958 29.3595 38.4433C29.2951 38.4909 29.2188 38.5192 29.1393 38.5251C29.0598 38.531 28.9803 38.5142 28.9097 38.4767L23.5 35.594L18.0946 38.4767C18.0331 38.509 17.9647 38.5256 17.8955 38.5252ZM23.5 34.671C23.5693 34.6709 23.6375 34.688 23.6987 34.7208L28.5418 37.301L27.6159 31.8359C27.6042 31.7667 27.6092 31.6957 27.6306 31.6288C27.652 31.562 27.689 31.5015 27.7386 31.4524L31.6554 27.58L26.2427 26.7813C26.1742 26.7711 26.1092 26.7443 26.0532 26.703C25.9972 26.6617 25.952 26.6072 25.9214 26.5443L23.5 21.5694L21.0787 26.543C21.048 26.6059 21.0028 26.6604 20.9468 26.7017C20.8909 26.743 20.8258 26.7698 20.7574 26.78L15.3447 27.58L19.2615 31.4524C19.311 31.5014 19.348 31.5619 19.3693 31.6286C19.3907 31.6954 19.3958 31.7664 19.3841 31.8355L18.4625 37.301L23.3009 34.7208C23.3623 34.688 23.4306 34.6709 23.5 34.671Z" fill="white"/>
</svg>
