<svg width="19" height="14" viewBox="0 0 19 14" fill="none" xmlns="http://www.w3.org/2000/svg">
<path d="M18.6767 1.88786L6.98781 13.675C6.886 13.778 6.76503 13.8597 6.63183 13.9155C6.49863 13.9713 6.35583 14 6.2116 14C6.06737 14 5.92456 13.9713 5.79136 13.9155C5.65816 13.8597 5.53719 13.778 5.43539 13.675L0.321518 8.51812C0.219584 8.41532 0.138726 8.29329 0.0835597 8.15899C0.0283936 8.02469 1.51893e-09 7.88074 0 7.73538C-1.51893e-09 7.59001 0.0283936 7.44606 0.0835597 7.31176C0.138726 7.17746 0.219584 7.05543 0.321518 6.95264C0.423451 6.84985 0.544464 6.76831 0.677647 6.71268C0.810829 6.65705 0.953574 6.62842 1.09773 6.62842C1.24189 6.62842 1.38463 6.65705 1.51781 6.71268C1.651 6.76831 1.77201 6.84985 1.87394 6.95264L6.21251 11.3277L17.1261 0.324221C17.3319 0.116626 17.6111 0 17.9023 0C18.1934 0 18.4726 0.116626 18.6785 0.324221C18.8843 0.531816 19 0.813376 19 1.10696C19 1.40054 18.8843 1.6821 18.6785 1.8897L18.6767 1.88786Z" fill="#CAE6D0"/>
</svg>
