<svg width="29" height="23" viewBox="0 0 29 23" fill="none" xmlns="http://www.w3.org/2000/svg">
<path d="M13.2343 14.2882C13.0815 14.1354 12.8857 14.0421 12.5802 14.0503C12.3368 14.0723 12.1182 14.2004 11.98 14.3989C11.4192 15.2058 11.0725 15.8645 10.8602 16.3485C10.1851 16.0996 9.03876 15.5434 7.85036 14.3797C6.67752 13.1831 6.11946 12.0349 5.8697 11.3579C6.35458 11.1457 7.01327 10.7989 7.81834 10.2381C8.01961 10.0991 8.14678 9.87769 8.1669 9.63891C8.18886 9.39373 8.10195 9.15587 7.92904 8.98479L3.56792 4.62184C3.25962 4.31262 2.71619 4.31628 2.41521 4.61452C2.40148 4.62825 1.02737 5.96851 0.225956 7.80462C-1.1198 10.8822 3.9421 16.2057 4.9704 17.2414C4.9768 17.2478 4.98412 17.2542 4.99052 17.2606C5.86513 18.1269 10.1631 22.2209 13.2444 22.2209C13.6698 22.2209 14.0632 22.1432 14.4117 21.9904C16.0841 21.2594 17.353 20.0491 17.6 19.8048C17.9138 19.4846 17.9119 18.9668 17.5945 18.6484L13.2343 14.2882ZM14.0467 21.1533C13.8134 21.2548 13.5444 21.307 13.2453 21.307C10.4449 21.307 6.10573 17.0785 5.61995 16.5973C5.6172 16.5946 5.61446 16.5918 5.6108 16.5891C3.48559 14.4456 0.147278 10.272 1.06488 8.1724C1.68881 6.74431 2.72443 5.61263 2.98882 5.33726L7.20265 9.55108C6.2146 10.2262 5.49278 10.5364 5.14514 10.6626C4.91917 10.745 4.79566 10.9874 4.86062 11.218C5.03261 11.8199 5.60439 13.3944 7.20356 15.0256C8.82377 16.6138 10.3973 17.1846 10.9984 17.3566C11.2298 17.4198 11.4723 17.2981 11.5537 17.0721C11.68 16.7245 11.9901 16.0026 12.6662 15.0146L16.8809 19.2284C16.5506 19.5468 15.4528 20.5385 14.0467 21.1533Z" fill="white"/>
<path d="M26.808 0H7.94917C6.74064 0 5.75717 0.98347 5.75717 2.19199V5.51841L6.67203 6.43327V4.2797L17.1572 10.0442C17.2249 10.0817 17.3008 10.1009 17.3768 10.1009C17.4527 10.1009 17.5286 10.0817 17.5972 10.0442L28.0833 4.2797V15.849C28.0833 16.5534 27.5106 17.1261 26.8062 17.1261H17.3658L18.2431 18.0034C18.255 18.0153 18.2623 18.0291 18.2733 18.041H26.808C28.0165 18.041 29 17.0575 29 15.849V2.19199C29 0.984385 28.0165 0 26.808 0ZM28.0851 3.23676L17.3786 9.12203L6.67294 3.23676V2.19199C6.67294 1.48756 7.24564 0.914855 7.95008 0.914855H26.8089C27.5134 0.914855 28.0861 1.48756 28.0861 2.19199L28.0851 3.23676Z" fill="white"/>
</svg>
