<svg width="21" height="20" viewBox="0 0 21 20" fill="none" xmlns="http://www.w3.org/2000/svg">
<path d="M11.0778 0.240437C10.7568 -0.0801457 10.2432 -0.0801457 9.92218 0.240437L0 10.1494L1.14981 11.3035L2.32296 10.126V19.1548C2.32296 19.6036 2.6965 20 3.14591 20H8.14202C8.59144 20 8.97665 19.6036 8.97665 19.1548V14.0546H12.0117V19.1548C12.0117 19.6036 12.3911 20 12.8463 20H17.8424C18.2918 20 18.6654 19.6036 18.6654 19.1548V10.126L19.8444 11.3035L21 10.1494L11.0778 0.240437ZM17.0311 18.3679H13.6459V13.2444C13.6459 12.7956 13.2957 12.4226 12.8463 12.4226H8.14202C7.69261 12.4226 7.34241 12.7956 7.34241 13.2444V18.3679H3.9572V8.49399L10.4942 1.97158L17.0311 8.49399V18.3679Z" fill="url(#paint0_linear_218_329)"/>
<defs>
<linearGradient id="paint0_linear_218_329" x1="10.5" y1="0" x2="10.5" y2="20" gradientUnits="userSpaceOnUse">
<stop stop-color="#9AD2A9"/>
<stop offset="1" stop-color="#F9BBBC"/>
</linearGradient>
</defs>
</svg>
