<svg width="104" height="104" viewBox="0 0 104 104" fill="none" xmlns="http://www.w3.org/2000/svg">
<circle cx="51.7625" cy="51.7626" r="32.4027" transform="rotate(-50.4421 51.7625 51.7626)" fill="white" stroke="#9AD2A9" stroke-width="2"/>
<path d="M44.0461 43.2283C43.9804 42.6634 44.1428 42.1049 44.4973 41.6757C44.8519 41.2465 45.3697 40.9816 45.9368 40.9394L59.5481 39.9278C60.1152 39.8857 60.6852 40.0697 61.1327 40.4394C61.5802 40.809 61.8685 41.334 61.9343 41.8989L63.5111 55.4563C63.5663 56.0155 63.3986 56.5649 63.0442 56.9862C62.6897 57.4075 62.1769 57.6669 61.616 57.7086C61.0552 57.7502 60.4913 57.5709 60.0458 57.209C59.6003 56.8472 59.3088 56.3319 59.2341 55.7742L58.1405 47.4987L45.4374 62.8771C45.0827 63.3064 44.5648 63.5713 43.9976 63.6135C43.4303 63.6556 42.8602 63.4716 42.4126 63.1019C41.9651 62.7322 41.6767 62.2071 41.611 61.6421C41.5453 61.0771 41.7076 60.5185 42.0623 60.0892L54.7653 44.7108L46.4323 45.1994C45.8651 45.2415 45.2951 45.0574 44.8477 44.6878C44.4002 44.3182 44.1118 43.7932 44.0461 43.2283Z" fill="#9AD2A9"/>
</svg>
