<svg width="34" height="34" viewBox="0 0 34 34" fill="none" xmlns="http://www.w3.org/2000/svg">
<path d="M26.1971 24.6853C26.3112 24.5155 26.5421 24.4716 26.7096 24.5872C26.8771 24.7029 26.9204 24.9371 26.8063 25.1069L26.7746 25.1538C26.6605 25.3236 26.4295 25.3675 26.2621 25.2519C26.0946 25.1362 26.0513 24.902 26.1654 24.7322L26.1971 24.6853ZM7.87433 4.69467C8.07067 4.64051 8.27421 4.75909 8.32765 4.95819C8.38107 5.15729 8.26413 5.3637 8.0678 5.41789C6.63858 5.8117 5.53129 6.68276 4.74883 7.8071C3.86532 9.07635 3.38891 10.6692 3.32393 12.2752C3.31672 12.4816 3.14492 12.6412 2.94135 12.6339C2.7378 12.6265 2.58044 12.4523 2.58766 12.2459C2.6584 10.5009 3.17957 8.76455 4.14534 7.37679C5.02452 6.11484 6.26894 5.13822 7.87433 4.69467ZM2.77383 14.6338C2.73196 14.4317 2.85901 14.2326 3.05823 14.1902C3.25745 14.1477 3.45378 14.2766 3.49566 14.4786L3.56495 14.8007C3.6097 15.0012 3.48555 15.2032 3.28777 15.2486C3.08999 15.294 2.89077 15.1681 2.84602 14.9676L2.77239 14.6338L2.77383 14.6338ZM25.0928 26.3602C25.2025 26.186 25.4306 26.1362 25.6024 26.2475C25.7742 26.3587 25.8233 26.59 25.7136 26.7642C24.9975 27.8944 24.3291 29.0436 23.7676 30.2031C23.2074 31.3582 22.7455 32.5338 22.4307 33.7225C22.3788 33.9216 22.1752 34.0402 21.9789 33.9875L21.9298 33.9699C7.64496 28.7084 1.62607 21.5161 0.295227 15.294C-0.364538 12.2079 0.124875 9.35303 1.33177 7.08263C2.54442 4.80177 4.48325 3.10662 6.71352 2.34357C9.66436 1.33343 13.116 1.95122 16.0597 4.99044C17.7387 2.25865 19.9258 0.738962 22.1939 0.213524C23.8325 -0.1671 25.5114 -0.0280314 27.0679 0.544381C28.6183 1.11532 30.049 2.11815 31.2053 3.46795C33.1715 5.76638 34.3365 9.07499 33.9135 12.9704C33.632 15.569 31.4189 18.6449 28.962 22.0588L27.9197 23.5154C27.8013 23.6823 27.5703 23.7204 27.4057 23.6003C27.2411 23.4803 27.2036 23.2461 27.322 23.0792L28.3672 21.6196C30.7622 18.292 32.9189 15.2937 33.1802 12.8884C33.58 9.21675 32.4901 6.10869 30.6494 3.95672C29.5782 2.70503 28.2515 1.7754 26.818 1.24835C25.3917 0.722798 23.8557 0.595411 22.3602 0.942376C20.1702 1.45039 18.0539 2.97877 16.4585 5.76914C16.4383 5.81013 16.4108 5.84819 16.3762 5.88186C16.2261 6.02094 15.9922 6.00923 15.855 5.85697C13.0644 2.75337 9.75408 2.09158 6.95049 3.05199C4.89761 3.7547 3.10876 5.32408 1.98414 7.43801C0.8552 9.56079 0.400438 12.2355 1.01977 15.1371C2.29307 21.0927 8.08641 27.9938 21.8302 33.1365C22.1492 32.04 22.5895 30.9508 23.1092 29.8762C23.691 28.6772 24.3696 27.5046 25.0957 26.3612L25.0928 26.3602Z" fill="white"/>
</svg>
