<svg width="25" height="25" viewBox="0 0 25 25" fill="none" xmlns="http://www.w3.org/2000/svg">
<circle cx="12.5" cy="12.5" r="12.5" fill="white"/>
<path d="M13.1232 8.23983C13.2705 8.08627 13.4703 8 13.6787 8C13.887 8 14.0868 8.08627 14.2342 8.23983L17.7699 11.9258C17.9173 12.0794 18 12.2877 18 12.5049C18 12.7221 17.9173 12.9305 17.7699 13.0841L14.2342 16.7701C14.086 16.9193 13.8875 17.0018 13.6815 17C13.4755 16.9981 13.2784 16.912 13.1327 16.7601C12.9871 16.6082 12.9044 16.4028 12.9026 16.188C12.9008 15.9732 12.98 15.7663 13.1232 15.6118L15.2501 13.3241H7.78573C7.57734 13.3241 7.37749 13.2378 7.23013 13.0841C7.08278 12.9305 7 12.7222 7 12.5049C7 12.2877 7.08278 12.0794 7.23013 11.9257C7.37749 11.7721 7.57734 11.6858 7.78573 11.6858H15.2501L13.1232 9.39805C12.9759 9.24444 12.8931 9.03614 12.8931 8.81894C12.8931 8.60174 12.9759 8.39343 13.1232 8.23983Z" fill="#F9BBBC"/>
</svg>
