<svg width="32" height="25" viewBox="0 0 32 25" fill="none" xmlns="http://www.w3.org/2000/svg">
<path d="M14.466 15.618C14.299 15.451 14.085 15.349 13.751 15.358C13.485 15.382 13.246 15.522 13.095 15.739C12.482 16.621 12.103 17.341 11.871 17.87C11.133 17.598 9.87998 16.99 8.58099 15.718C7.29899 14.41 6.68898 13.155 6.41599 12.415C6.94598 12.183 7.66599 11.804 8.54599 11.191C8.76599 11.039 8.90498 10.797 8.92698 10.536C8.95098 10.268 8.85599 10.008 8.66699 9.82101L3.89999 5.05201C3.56299 4.71401 2.96899 4.71801 2.63999 5.04401C2.62498 5.05901 1.12299 6.52401 0.246985 8.53101C-1.22401 11.895 4.30899 17.714 5.43299 18.846C5.43999 18.853 5.44798 18.86 5.45498 18.867C6.41098 19.814 11.109 24.289 14.477 24.289C14.942 24.289 15.372 24.204 15.753 24.037C17.581 23.238 18.968 21.915 19.238 21.648C19.581 21.298 19.579 20.732 19.232 20.384L14.466 15.618ZM15.354 23.122C15.099 23.233 14.805 23.29 14.478 23.29C11.417 23.29 6.67399 18.668 6.14299 18.142C6.13999 18.139 6.13699 18.136 6.13299 18.133C3.80999 15.79 0.160985 11.228 1.16399 8.93301C1.84599 7.37201 2.97798 6.13501 3.26698 5.83401L7.87298 10.44C6.79298 11.178 6.00399 11.517 5.62399 11.655C5.37699 11.745 5.24199 12.01 5.31299 12.262C5.50099 12.92 6.12599 14.641 7.87399 16.424C9.64499 18.16 11.365 18.784 12.022 18.972C12.275 19.041 12.54 18.908 12.629 18.661C12.767 18.281 13.106 17.492 13.845 16.412L18.452 21.018C18.091 21.366 16.891 22.45 15.354 23.122Z" fill="white"/>
<path d="M29.303 0H8.68898C7.36798 0 6.29298 1.075 6.29298 2.396V6.032L7.29298 7.032V4.678L18.754 10.979C18.828 11.02 18.911 11.041 18.994 11.041C19.077 11.041 19.16 11.02 19.235 10.979L30.697 4.678V17.324C30.697 18.094 30.071 18.72 29.301 18.72H18.982L19.941 19.679C19.954 19.692 19.962 19.707 19.974 19.72H29.303C30.624 19.72 31.699 18.645 31.699 17.324V2.396C31.699 1.076 30.624 0 29.303 0ZM30.699 3.538L18.996 9.971L7.29398 3.538V2.396C7.29398 1.626 7.91998 1 8.68998 1H29.304C30.074 1 30.7 1.626 30.7 2.396L30.699 3.538Z" fill="white"/>
</svg>
