<svg width="37" height="28" viewBox="0 0 37 28" fill="none" xmlns="http://www.w3.org/2000/svg">
<path d="M11.2527 15.4427H18.9678C19.156 15.4427 19.3107 15.288 19.3107 15.0998V10.8973C19.3107 10.7007 19.156 10.546 18.9678 10.546H11.2527C11.0646 10.546 10.9098 10.7007 10.9098 10.8973V15.0998C10.9098 15.288 11.0646 15.4427 11.2527 15.4427ZM11.5998 11.2402H18.6207V14.7527H11.5998V11.2402Z" fill="white"/>
<path d="M18.9719 17.5084H11.261C11.0686 17.5084 10.9139 17.6631 10.9139 17.8597V22.0622C10.9139 22.2545 11.0686 22.4051 11.261 22.4051H18.9719C19.16 22.4051 19.3148 22.2545 19.3148 22.0622V17.8597C19.3148 17.6631 19.16 17.5084 18.9719 17.5084ZM18.6248 21.7151H11.6081V18.2026H18.6248V21.7151Z" fill="white"/>
<path d="M11.2527 7.45159H16.9857C17.1781 7.45159 17.3328 7.29687 17.3328 7.1087C17.3328 6.91217 17.1781 6.75745 16.9857 6.75745H11.2527C11.0646 6.75745 10.9098 6.91217 10.9098 7.1087C10.9098 7.29269 11.0646 7.45159 11.2527 7.45159Z" fill="white"/>
<path d="M10.9098 8.80227C10.9098 8.99463 11.0646 9.14935 11.2527 9.14935H18.9678C19.156 9.14935 19.3107 8.99463 19.3107 8.80227C19.3107 8.60992 19.156 8.4552 18.9678 8.4552H11.2527C11.0646 8.4552 10.9098 8.60992 10.9098 8.80227Z" fill="white"/>
<path d="M11.261 24.408H16.1618C16.3542 24.408 16.5089 24.2574 16.5089 24.0609C16.5089 23.8727 16.3542 23.718 16.1618 23.718H11.261C11.0686 23.718 10.9139 23.8727 10.9139 24.0609C10.9139 24.2574 11.0686 24.408 11.261 24.408Z" fill="white"/>
<path d="M18.3113 25.3113C18.3071 25.3113 18.3071 25.3113 18.3113 25.3113L11.2527 25.3698C11.0604 25.3782 10.9098 25.5329 10.9098 25.7211C10.9098 25.9092 11.0646 26.064 11.2527 26.064L18.3113 26.0054C18.5036 26.0054 18.6583 25.8507 18.6542 25.6542C18.6542 25.466 18.4994 25.3113 18.3113 25.3113Z" fill="white"/>
<path d="M28.1798 14.6732C30.8978 14.6732 33.1141 12.4612 33.1141 9.74313C33.1141 7.02509 30.902 4.81302 28.1798 4.81302C25.4659 4.81302 23.2497 7.02509 23.2497 9.74313C23.2497 12.4612 25.4659 14.6732 28.1798 14.6732ZM28.1798 5.50717C30.5215 5.50717 32.4199 7.40979 32.4199 9.74731C32.4199 12.0848 30.5215 13.9791 28.1798 13.9791C25.8423 13.9791 23.9397 12.0806 23.9397 9.74313C23.9397 7.40561 25.8465 5.50717 28.1798 5.50717Z" fill="white"/>
<path d="M28.1798 15.2628C26.0765 15.2628 24.0902 15.9988 22.5137 17.3453V4.41577C22.5137 4.22342 22.359 4.0687 22.1708 4.0687H18.6541V2.47969C18.6541 2.28734 18.4994 2.13262 18.3112 2.13262H14.7945V0.347073C14.7945 0.15472 14.6398 0 14.4474 0H0.342891C0.150538 0 0 0.15472 0 0.347073V23.5842C0 23.7766 0.150538 23.9313 0.342891 23.9313H3.85962V25.721C3.85962 25.9092 4.01016 26.0639 4.20251 26.0639H7.71924V27.6571C7.71924 27.8453 7.87395 28 8.06631 28H22.1708C22.359 28 22.5137 27.8453 22.5137 27.6571V24.3578H36.5848C36.7772 24.3578 36.9319 24.2031 36.9319 24.0149C36.9319 19.1852 33.0096 15.2628 28.1798 15.2628ZM0.689964 23.2372V0.689965H14.1004V2.13262H4.20251C4.01016 2.13262 3.85962 2.28734 3.85962 2.47969V23.2372H0.689964ZM4.54958 25.3698V2.82258H17.9642V4.0687H8.06631C7.87395 4.0687 7.71924 4.22342 7.71924 4.41577V25.3698H4.54958ZM21.8238 27.3142H8.4092V4.75866H21.8238V27.3142ZM22.5137 23.6637V18.2861C24.0317 16.7808 26.043 15.9486 28.1798 15.9486C32.5078 15.9486 36.0496 19.3775 36.2336 23.6595L22.5137 23.6637Z" fill="white"/>
</svg>
